<svg id="Ebene_1" data-name="Ebene 1" xmlns="http://www.w3.org/2000/svg" xmlns:xlink="http://www.w3.org/1999/xlink" viewBox="0 0 841.89 177.17"><defs><style>.cls-1{fill:none;}.cls-2{clip-path:url(#clip-path);}.cls-3{fill:#d0d0d0;}.cls-4{fill:#e3e3e3;}.cls-5{fill:#ec651f;}</style><clipPath id="clip-path" transform="translate(114.75 -308)"><rect class="cls-1" x="-115" y="308" width="841.89" height="177.17"/></clipPath></defs><g class="cls-2"><polygon class="cls-3" points="0 0 0 177.16 841.89 177.16 841.89 0 0 0 0 0"/></g><path class="cls-4" d="M-104.41,468.14a8.49,8.49,0,0,0-2.67-.4c-2,0-3.91.91-3.91,3.41,0,3.7,4.9,2.82,4.9,4.94,0,1-1.14,1.44-2,1.44a5.4,5.4,0,0,1-2.52-.68l-.21,2a9.89,9.89,0,0,0,2.86.43c2.26,0,4.19-.92,4.19-3.37,0-3.75-4.89-2.93-4.89-4.87a1.56,1.56,0,0,1,1.76-1.55,5.85,5.85,0,0,1,2.27.48l.21-1.84Zm10.64,8.93a6.29,6.29,0,0,1-2.45.46,3.68,3.68,0,0,1-3.79-4,3.73,3.73,0,0,1,3.74-4.05,4.63,4.63,0,0,1,2.42.59l.16-1.88a7.4,7.4,0,0,0-2.53-.47c-3.79,0-6.13,2.15-6.13,6s2.51,5.58,6.13,5.58a11.35,11.35,0,0,0,2.54-.35l-.09-1.87Zm1.66,2h2.24v-4.89h4.48v4.89h2.24V467.93h-2.24v4.52h-4.48v-4.52h-2.24V479.1Zm11.47,0h2.15v-9.18l0,0,3,9.21h2.14l3-9.21h0v9.21h2.15V467.93h-3.59l-2.65,8.47h0L-77,467.93h-3.59V479.1Zm15-4c0,3,1.69,4.22,4.56,4.22s4.56-1.23,4.56-4.22v-7.14h-2.24v6.45c0,1.91-.61,3.15-2.32,3.15s-2.32-1.24-2.32-3.15v-6.45h-2.24v7.14Zm13.58,4h2.24v-9.41h3.2v-1.76h-8.64v1.76h3.2v9.41Zm6.07,0h7.74v-1.76h-5.41l5.3-7.58v-1.83h-7.43v1.76h5L-46,477.28v1.82Zm13-3.42v-1.76h-4.2v1.76Zm3.62-.61c0,3,1.7,4.22,4.56,4.22s4.56-1.23,4.56-4.22v-7.14h-2.24v6.45c0,1.91-.61,3.15-2.32,3.15s-2.32-1.24-2.32-3.15v-6.45h-2.24v7.14Zm11.44,4h2.14v-8.35h0l4.27,8.35H-8.8V467.93h-2.14v8.36h0l-4.26-8.36H-18V479.1Zm11.58,0h3.06c3.42,0,6.45-1.15,6.45-5.58s-3-5.59-6.45-5.59H-6.4V479.1Zm2.24-9.41h1.25a3.66,3.66,0,0,1,3.68,3.83,3.65,3.65,0,0,1-3.68,3.82H-4.16v-7.65Zm13.2,0h.74c1.12,0,2.37.12,2.37,1.46s-1.27,1.55-2.37,1.55H9v-3ZM6.8,479.1H9v-4.64h.72c1,0,1.24.32,1.56,1.15l1.34,3.49h2.49l-1.79-4.37c-.22-.49-.57-1.1-1.18-1.15v0a2.55,2.55,0,0,0,2.3-2.59c0-3.11-2.86-3-5.26-3H6.8V479.1Zm9.89,0h6.63v-1.76H18.93v-3.13h4v-1.76h-4v-2.76h4.35v-1.76H16.69V479.1Zm17.68-10.89a10.93,10.93,0,0,0-3.28-.47c-3.79,0-6.13,2.15-6.13,6s2.52,5.58,6.13,5.58a14.15,14.15,0,0,0,3.62-.57v-6H30.2v1.76h2.36v2.91a5.82,5.82,0,0,1-1.47.16,3.68,3.68,0,0,1-3.79-4,3.8,3.8,0,0,1,4.05-4.05,7.35,7.35,0,0,1,2.88.59l.14-1.88ZM37,479.1H43.6v-1.76H39.22v-3.13h4v-1.76h-4v-2.76h4.35v-1.76H37V479.1Zm8.7,0h2.15v-8.35h0l4.27,8.35h2.74V467.93H52.72v8.36h0l-4.26-8.36H45.68V479.1Zm13.41,0H62l2-8.93h0l2,8.93H68.9l2.91-11.17H69.63l-2.09,8.93h0l-2-8.93h-3l-1.91,8.93h0l-2.08-8.93H56.13l3,11.17Zm19.55-4.32H75.38L77,470.17h0l1.61,4.61Zm-7.2,4.32h2.32l1-2.56h4.53l1,2.56h2.48l-4.39-11.17H75.79L71.44,479.1Zm18.83-11a8.45,8.45,0,0,0-2.67-.4c-2,0-3.9.91-3.9,3.41,0,3.7,4.89,2.82,4.89,4.94,0,1-1.13,1.44-2,1.44a5.47,5.47,0,0,1-2.53-.68l-.21,2a10,10,0,0,0,2.87.43c2.25,0,4.19-.92,4.19-3.37,0-3.75-4.9-2.93-4.9-4.87a1.56,1.56,0,0,1,1.76-1.55,5.89,5.89,0,0,1,2.28.48l.2-1.84Zm8.82,0a8.49,8.49,0,0,0-2.67-.4c-2,0-3.91.91-3.91,3.41,0,3.7,4.9,2.82,4.9,4.94,0,1-1.14,1.44-2,1.44a5.47,5.47,0,0,1-2.53-.68l-.21,2a9.89,9.89,0,0,0,2.86.43c2.26,0,4.2-.92,4.2-3.37,0-3.75-4.9-2.93-4.9-4.87a1.56,1.56,0,0,1,1.76-1.55,5.85,5.85,0,0,1,2.27.48l.21-1.84Zm2.61,11h6.62v-1.76h-4.38v-3.13h4v-1.76h-4v-2.76h4.35v-1.76H101.7V479.1Zm10.86-9.41h.74c1.12,0,2.37.12,2.37,1.46s-1.27,1.55-2.37,1.55h-.74v-3Zm-2.24,9.41h2.24v-4.64h.72c1,0,1.23.32,1.55,1.15l1.35,3.49h2.49l-1.79-4.37c-.22-.49-.57-1.1-1.18-1.15v0A2.55,2.55,0,0,0,118,471c0-3.11-2.86-3-5.26-3h-2.42V479.1Zm28.23,0h2.15v-9.18l0,0,3,9.21h2.14l3-9.21h0v9.21h2.15V467.93h-3.59l-2.65,8.47h0l-2.65-8.47h-3.59V479.1Zm21.08-4.32h-3.27l1.62-4.61h0l1.62,4.61Zm-7.2,4.32h2.32l1-2.56h4.53l1,2.56h2.48l-4.38-11.17h-2.53l-4.35,11.17Zm20.65-2a6.29,6.29,0,0,1-2.45.46,3.68,3.68,0,0,1-3.79-4,3.73,3.73,0,0,1,3.74-4.05,4.6,4.6,0,0,1,2.42.59l.16-1.88a7.36,7.36,0,0,0-2.53-.47c-3.79,0-6.12,2.15-6.12,6s2.51,5.58,6.12,5.58a11.52,11.52,0,0,0,2.55-.35l-.1-1.87Zm1.66,2H177v-4.89h4.48v4.89h2.24V467.93h-2.24v4.52H177v-4.52h-2.24V479.1Zm13.72-5h1c1.12,0,2.31.22,2.31,1.68,0,1.3-1.27,1.55-2.31,1.55h-1v-3.23Zm0-4.42h.86c1,0,2.16.1,2.16,1.4s-1.17,1.36-2.11,1.36h-.91v-2.76Zm-2.24,9.41h3.9c1.41,0,3.94-.41,3.94-3.23a2.59,2.59,0,0,0-2.56-2.54v0a2.48,2.48,0,0,0,2.22-2.49c0-2.45-2.16-2.87-3.6-2.87h-3.9V479.1ZM202,474.78H198.7l1.61-4.61h0l1.61,4.61Zm-7.2,4.32h2.32l1-2.56h4.52l1,2.56H206l-4.39-11.17h-2.53l-4.35,11.17Zm14.67-9.41h.74c1.12,0,2.37.12,2.37,1.46s-1.27,1.55-2.37,1.55h-.74v-3Zm-2.24,9.41h2.24v-4.64h.72c.95,0,1.24.32,1.56,1.15l1.34,3.49h2.5l-1.8-4.37c-.22-.49-.57-1.1-1.18-1.15v0a2.55,2.55,0,0,0,2.3-2.59c0-3.11-2.86-3-5.26-3h-2.42V479.1Zm9.89,0h2.24v-5.18h0l4,5.18h2.93l-4.79-5.9,4.6-5.27h-2.76l-4,4.8v-4.8h-2.24V479.1Zm10.59,0h6.63v-1.76h-4.39v-3.13h4v-1.76h-4v-2.76h4.35v-1.76h-6.59V479.1Zm8.63,0h2.24V467.93H236.3V479.1Zm6.59,0h2.24v-9.41h3.2v-1.76h-8.64v1.76h3.2v9.41Zm13-11a8.49,8.49,0,0,0-2.67-.4c-2,0-3.91.91-3.91,3.41,0,3.7,4.9,2.82,4.9,4.94,0,1-1.14,1.44-2,1.44a5.47,5.47,0,0,1-2.53-.68l-.21,2a9.89,9.89,0,0,0,2.86.43c2.26,0,4.2-.92,4.2-3.37,0-3.75-4.9-2.93-4.9-4.87a1.56,1.56,0,0,1,1.76-1.55,5.85,5.85,0,0,1,2.27.48l.21-1.84Zm8.82,0a8.55,8.55,0,0,0-2.68-.4c-2,0-3.9.91-3.9,3.41,0,3.7,4.9,2.82,4.9,4.94,0,1-1.14,1.44-2,1.44a5.47,5.47,0,0,1-2.53-.68l-.2,2a9.84,9.84,0,0,0,2.86.43c2.26,0,4.19-.92,4.19-3.37,0-3.75-4.89-2.93-4.89-4.87a1.56,1.56,0,0,1,1.76-1.55,5.88,5.88,0,0,1,2.27.48l.21-1.84Zm4.64,11h2.24v-9.41h3.2v-1.76h-8.64v1.76h3.2v9.41Zm6.7-4c0,3,1.7,4.22,4.56,4.22s4.56-1.23,4.56-4.22v-7.14h-2.24v6.45c0,1.91-.61,3.15-2.32,3.15s-2.32-1.24-2.32-3.15v-6.45H276v7.14Zm11.55,4h3.06c3.42,0,6.45-1.15,6.45-5.58s-3-5.59-6.45-5.59h-3.06V479.1Zm2.24-9.41h1.25a3.83,3.83,0,0,1,0,7.65h-1.25v-7.65Zm9,9.41h2.24V467.93h-2.24V479.1Zm4.56,0h6.63v-1.76h-4.39v-3.13h4v-1.76h-4v-2.76H310v-1.76h-6.59V479.1Zm29.21-9.41h.74c1.12,0,2.36.12,2.36,1.46s-1.26,1.55-2.36,1.55h-.74v-3Zm-2.24,9.41h2.24v-4.64h.72c.94,0,1.23.32,1.55,1.15l1.35,3.49h2.49L337,474.73c-.22-.49-.58-1.1-1.18-1.15v0a2.55,2.55,0,0,0,2.3-2.59c0-3.11-2.86-3-5.26-3H330.4V479.1Zm9.89,0h6.62v-1.76h-4.38v-3.13h4v-1.76h-4v-2.76h4.35v-1.76h-6.59V479.1Zm8.7,0h2.15v-8.35h0l4.27,8.35h2.74V467.93H356v8.36h0l-4.26-8.36H349V479.1Zm17.63-4.32h-3.26l1.62-4.61h0l1.61,4.61Zm-7.2,4.32h2.32l1-2.56h4.53l1,2.56h2.48l-4.39-11.17h-2.53l-4.35,11.17Zm13.38,0H375v-9.41h3.2v-1.76H369.6v1.76h3.2v9.41Zm6.7-4c0,3,1.7,4.22,4.56,4.22s4.56-1.23,4.56-4.22v-7.14h-2.24v6.45c0,1.91-.6,3.15-2.32,3.15s-2.32-1.24-2.32-3.15v-6.45H379.5v7.14Zm13.6-5.38h.74c1.12,0,2.37.12,2.37,1.46s-1.27,1.55-2.37,1.55h-.74v-3Zm-2.24,9.41h2.24v-4.64h.72c.95,0,1.23.32,1.56,1.15l1.34,3.49h2.5l-1.8-4.37c-.22-.49-.57-1.1-1.18-1.15v0a2.55,2.55,0,0,0,2.3-2.59c0-3.11-2.86-3-5.26-3h-2.42V479.1Zm9.7,0h2.24V467.93h-2.24V479.1Zm4.56,0h6.62v-1.76h-4.38v-3.13h4v-1.76h-4v-2.76h4.35v-1.76h-6.59V479.1ZM416,469.69h.74c1.12,0,2.37.12,2.37,1.46s-1.27,1.55-2.37,1.55H416v-3Zm-2.24,9.41H416v-4.64h.72c.95,0,1.24.32,1.56,1.15l1.34,3.49h2.49l-1.79-4.37c-.22-.49-.57-1.1-1.18-1.15v0a2.55,2.55,0,0,0,2.3-2.59c0-3.11-2.86-3-5.26-3h-2.42V479.1Zm9.81-4c0,3,1.7,4.22,4.56,4.22s4.56-1.23,4.56-4.22v-7.14h-2.24v6.45c0,1.91-.61,3.15-2.32,3.15s-2.32-1.24-2.32-3.15v-6.45h-2.24v7.14Zm11.44,4h2.15v-8.35h0l4.27,8.35h2.73V467.93H442v8.36h0l-4.26-8.36H435V479.1Zm20.45-10.89a11,11,0,0,0-3.28-.47c-3.79,0-6.13,2.15-6.13,6s2.51,5.58,6.13,5.58a14,14,0,0,0,3.61-.57v-6h-4.51v1.76h2.37v2.91a5.82,5.82,0,0,1-1.47.16,3.67,3.67,0,0,1-3.79-4,3.8,3.8,0,0,1,4-4.05,7.28,7.28,0,0,1,2.88.59l.15-1.88Zm27,6.57h-3.27l1.62-4.61h0l1.62,4.61Zm-7.2,4.32h2.32l1-2.56h4.53l1,2.56h2.48l-4.38-11.17h-2.53l-4.35,11.17Zm12.54-4c0,3,1.7,4.22,4.56,4.22s4.56-1.23,4.56-4.22v-7.14h-2.24v6.45c0,1.91-.61,3.15-2.32,3.15s-2.32-1.24-2.32-3.15v-6.45h-2.24v7.14Zm13.58,4h2.24v-9.41h3.2v-1.76h-8.64v1.76h3.2v9.41Zm6.24-5.61c0,3.42,1.89,5.8,5.48,5.8s5.47-2.43,5.47-5.8-2-5.75-5.47-5.75-5.48,2.32-5.48,5.75Zm2.34,0c0-2,.91-4,3.14-4s3.13,2,3.13,4-.85,4-3.13,4-3.14-2-3.14-4Zm12.82.62h1c1.12,0,2.31.22,2.31,1.68,0,1.3-1.27,1.55-2.31,1.55h-1v-3.23Zm0-4.42h.86c1,0,2.16.1,2.16,1.4s-1.17,1.36-2.11,1.36h-.91v-2.76Zm-2.24,9.41h3.9c1.41,0,3.94-.41,3.94-3.23a2.59,2.59,0,0,0-2.56-2.54v0A2.48,2.48,0,0,0,528,470.8c0-2.45-2.16-2.87-3.6-2.87h-3.9V479.1Zm15.74-4.32H533l1.61-4.61h0l1.61,4.61Zm-7.2,4.32h2.32l1-2.56h4.53l1,2.56h2.49l-4.39-11.17h-2.53l-4.35,11.17Zm12.63,0h2.24v-4.89h4.48v4.89h2.24V467.93h-2.24v4.52h-4.48v-4.52h-2.24V479.1Zm11.36,0h2.14v-8.35h0l4.27,8.35h2.74V467.93h-2.14v8.36h0l-4.25-8.36h-2.75V479.1Zm29.92,0h2.24v-5.18h0l4,5.18h2.93l-4.79-5.9,4.6-5.27h-2.76l-4,4.8v-4.8H583V479.1Zm16.64-4.32h-3.26l1.61-4.61h0l1.61,4.61Zm-7.2,4.32h2.32l1-2.56h4.53l1,2.56h2.48l-4.39-11.17h-2.53l-4.35,11.17Zm12.51,0h2.15v-8.35h0l4.27,8.35h2.74V467.93H612v8.36h0l-4.25-8.36h-2.76V479.1Zm17.64-4.32h-3.27l1.62-4.61h0l1.62,4.61Zm-7.2,4.32h2.32l1-2.56h4.53l1,2.56h2.48l-4.38-11.17h-2.53l-4.35,11.17Zm12.62,0h6.58v-1.76h-4.34v-9.41H628V479.1Zm14.13-11a8.51,8.51,0,0,0-2.68-.4c-2,0-3.9.91-3.9,3.41,0,3.7,4.9,2.82,4.9,4.94,0,1-1.14,1.44-2,1.44a5.4,5.4,0,0,1-2.52-.68l-.21,2a9.89,9.89,0,0,0,2.86.43c2.26,0,4.19-.92,4.19-3.37,0-3.75-4.89-2.93-4.89-4.87a1.56,1.56,0,0,1,1.76-1.55,5.85,5.85,0,0,1,2.27.48l.21-1.84Zm8.65,6.64H647.5l1.61-4.61h0l1.61,4.61Zm-7.2,4.32h2.32l1-2.56h4.53l1,2.56h2.48l-4.39-11.17h-2.53l-4.35,11.17Zm12.52,0h2.14v-8.35h0l4.27,8.35h2.74V467.93h-2.15v8.36h0l-4.25-8.36h-2.75V479.1Zm11.39,0h2.24V467.93h-2.24V479.1Zm4.56,0h6.62v-1.76h-4.38v-3.13h4v-1.76h-4v-2.76h4.35v-1.76H672V479.1Zm10.86-9.41h.74c1.12,0,2.36.12,2.36,1.46s-1.26,1.55-2.36,1.55h-.74v-3Zm-2.24,9.41h2.24v-4.64h.72c.94,0,1.23.32,1.55,1.15l1.35,3.49H689l-1.79-4.37c-.22-.49-.57-1.1-1.18-1.15v0a2.55,2.55,0,0,0,2.3-2.59c0-3.11-2.86-3-5.26-3h-2.42V479.1Zm9.81-4c0,3,1.7,4.22,4.56,4.22s4.56-1.23,4.56-4.22v-7.14h-2.24v6.45c0,1.91-.61,3.15-2.32,3.15s-2.32-1.24-2.32-3.15v-6.45h-2.24v7.14Zm11.44,4H704v-8.35h0l4.27,8.35h2.73V467.93h-2.14v8.36h0l-4.26-8.36H701.9V479.1Zm20.45-10.89a11,11,0,0,0-3.28-.47c-3.8,0-6.13,2.15-6.13,6s2.51,5.58,6.13,5.58a14,14,0,0,0,3.61-.57v-6h-4.51v1.76h2.37v2.91a5.93,5.93,0,0,1-1.47.16,3.68,3.68,0,0,1-3.8-4,3.8,3.8,0,0,1,4.05-4.05,7.28,7.28,0,0,1,2.88.59l.15-1.88Z" transform="translate(114.75 -308)"/><path class="cls-4" d="M131.72,446.14a8.55,8.55,0,0,0-2.68-.4c-2,0-3.9.91-3.9,3.41,0,3.7,4.9,2.82,4.9,4.94,0,1-1.14,1.44-2,1.44a5.47,5.47,0,0,1-2.53-.68l-.2,2a9.84,9.84,0,0,0,2.86.43c2.26,0,4.19-.92,4.19-3.37,0-3.75-4.89-2.93-4.89-4.87a1.56,1.56,0,0,1,1.76-1.55,5.88,5.88,0,0,1,2.27.48l.21-1.84Zm4.64,11h2.24v-9.41h3.19v-1.76h-8.64v1.76h3.21v9.41Zm6.78,0h6.62v-1.76h-4.38v-3.13h4v-1.76h-4v-2.76h4.35v-1.76h-6.59V457.1Zm8.74-4c0,3,1.69,4.22,4.55,4.22s4.56-1.23,4.56-4.22v-7.14h-2.23v6.45c0,1.91-.61,3.15-2.33,3.15s-2.32-1.24-2.32-3.15v-6.45h-2.23v7.14Zm11.55,4h6.62v-1.76h-4.38v-3.13h4v-1.76h-4v-2.76H170v-1.76h-6.59V457.1Zm10.86-9.41H175c1.12,0,2.36.12,2.36,1.46s-1.26,1.55-2.36,1.55h-.74v-3Zm-2.24,9.41h2.24v-4.64H175c.94,0,1.23.32,1.55,1.15l1.35,3.49h2.49l-1.79-4.37c-.22-.49-.58-1.1-1.18-1.15v0a2.55,2.55,0,0,0,2.3-2.59c0-3.11-2.86-3-5.26-3h-2.42V457.1Zm9.81-4c0,3,1.69,4.22,4.56,4.22s4.56-1.23,4.56-4.22v-7.14h-2.24v6.45c0,1.91-.61,3.15-2.32,3.15s-2.32-1.24-2.32-3.15v-6.45h-2.24v7.14Zm11.44,4h2.14v-8.35h0l4.28,8.35h2.73V445.93h-2.14v8.36h0l-4.26-8.36H193.3V457.1Zm20.45-10.89a11,11,0,0,0-3.28-.47c-3.8,0-6.13,2.15-6.13,6s2.51,5.58,6.13,5.58a14,14,0,0,0,3.61-.57v-6h-4.51v1.76h2.37v2.91a5.93,5.93,0,0,1-1.47.16,3.68,3.68,0,0,1-3.8-4,3.8,3.8,0,0,1,4.05-4.05,7.28,7.28,0,0,1,2.88.59l.15-1.88Zm16.89,10.89h2.15v-9.18l0,0,3,9.21H238l3-9.21h0v9.21h2.14V445.93h-3.58l-2.66,8.47h0l-2.65-8.47h-3.59V457.1Zm21.07-4.32h-3.26l1.62-4.61h0l1.61,4.61Zm-7.2,4.32h2.32l1-2.56h4.53l1,2.56h2.48l-4.39-11.17h-2.52l-4.36,11.17Zm18.84-11a8.55,8.55,0,0,0-2.68-.4c-2,0-3.9.91-3.9,3.41,0,3.7,4.9,2.82,4.9,4.94,0,1-1.14,1.44-2,1.44a5.47,5.47,0,0,1-2.53-.68l-.2,2a9.84,9.84,0,0,0,2.86.43c2.26,0,4.19-.92,4.19-3.37,0-3.75-4.89-2.93-4.89-4.87a1.56,1.56,0,0,1,1.76-1.55,5.88,5.88,0,0,1,2.27.48l.21-1.84Zm4.63,11h2.25v-9.41h3.19v-1.76h-8.63v1.76H268v9.41Zm6.79,0h6.62v-1.76H277v-3.13h4v-1.76h-4v-2.76h4.35v-1.76h-6.59V457.1Zm10.86-9.41h.74c1.12,0,2.37.12,2.37,1.46s-1.27,1.55-2.37,1.55h-.74v-3Zm-2.24,9.41h2.24v-4.64h.72c.95,0,1.23.32,1.55,1.15l1.35,3.49h2.49L290,452.73c-.22-.49-.57-1.1-1.18-1.15v0a2.55,2.55,0,0,0,2.3-2.59c0-3.11-2.86-3-5.26-3h-2.42V457.1Zm11.94-9.41h.78c1.16,0,2.13.45,2.13,1.75s-1,1.66-2.13,1.66h-.78v-3.41Zm-2.24,9.41h2.24v-4.24h.94c2.4,0,4.31-.94,4.31-3.55s-2.23-3.38-4.66-3.38h-2.83V457.1Zm9,0h6.57v-1.76h-4.33v-9.41H302.1V457.1Zm14-4.32H312.8l1.62-4.61h0l1.62,4.61Zm-7.21,4.32h2.32l1-2.56h4.53l1,2.56h2.48l-4.39-11.17h-2.52l-4.36,11.17Zm12.52,0h2.14v-8.35h0l4.27,8.35h2.74V445.93h-2.14v8.36h0l-4.25-8.36h-2.75V457.1Zm28.57,0h2.75l3.76-11.17h-2.22l-2.83,8.77h0l-2.87-8.77h-2.4L350,457.1Zm7.89,0h6.62v-1.76h-4.38v-3.13h4v-1.76h-4v-2.76h4.35v-1.76h-6.59V457.1Zm10.86-9.41h.74c1.12,0,2.37.12,2.37,1.46s-1.27,1.55-2.37,1.55h-.74v-3Zm-2.24,9.41h2.24v-4.64h.72c.95,0,1.24.32,1.56,1.15l1.34,3.49h2.5l-1.8-4.37c-.22-.49-.57-1.1-1.18-1.15v0a2.55,2.55,0,0,0,2.3-2.59c0-3.11-2.86-3-5.26-3h-2.42V457.1Zm9.89,0h2.24v-5.18h0l4,5.18h2.93l-4.79-5.9,4.6-5.27h-2.76l-4,4.8v-4.8h-2.24V457.1Zm10.59,0h6.63v-1.76h-4.39v-3.13h4v-1.76h-4v-2.76h4.36v-1.76h-6.6V457.1Zm8.82,0H398v-4.89h4.48v4.89h2.24V445.93h-2.24v4.52H398v-4.52h-2.24V457.1Zm13.52-9.41H410c1.12,0,2.36.12,2.36,1.46s-1.26,1.55-2.36,1.55h-.74v-3ZM407,457.1h2.24v-4.64H410c.94,0,1.23.32,1.55,1.15l1.35,3.49h2.49l-1.79-4.37c-.22-.49-.58-1.1-1.19-1.15v0a2.55,2.55,0,0,0,2.31-2.59c0-3.11-2.87-3-5.26-3H407V457.1Zm16.1-11a8.55,8.55,0,0,0-2.68-.4c-2,0-3.9.91-3.9,3.41,0,3.7,4.9,2.82,4.9,4.94,0,1-1.14,1.44-2,1.44a5.47,5.47,0,0,1-2.53-.68l-.21,2a10,10,0,0,0,2.87.43c2.25,0,4.19-.92,4.19-3.37,0-3.75-4.89-2.93-4.89-4.87a1.56,1.56,0,0,1,1.76-1.55,5.88,5.88,0,0,1,2.27.48l.21-1.84Zm2.52,6.93c0,3,1.7,4.22,4.56,4.22s4.56-1.23,4.56-4.22v-7.14h-2.24v6.45c0,1.91-.61,3.15-2.32,3.15s-2.32-1.24-2.32-3.15v-6.45h-2.24v7.14Zm11.44,4h2.15v-8.35h0l4.27,8.35h2.74V445.93h-2.15v8.36h0l-4.26-8.36H437.1V457.1Zm13.62,0H453v-9.41h3.2v-1.76h-8.64v1.76h3.2v9.41Zm6.78,0h6.63v-1.76h-4.39v-3.13h4v-1.76h-4v-2.76h4.35v-1.76H457.5V457.1Zm10.87-9.41h.73c1.12,0,2.37.12,2.37,1.46s-1.26,1.55-2.37,1.55h-.73v-3Zm-2.24,9.41h2.24v-4.64h.72c.94,0,1.23.32,1.55,1.15L472,457.1h2.5l-1.79-4.37c-.23-.49-.58-1.1-1.19-1.15v0a2.55,2.55,0,0,0,2.31-2.59c0-3.11-2.87-3-5.27-3h-2.41V457.1Zm16.09-11a8.45,8.45,0,0,0-2.67-.4c-2,0-3.9.91-3.9,3.41,0,3.7,4.89,2.82,4.89,4.94,0,1-1.13,1.44-2,1.44a5.47,5.47,0,0,1-2.53-.68l-.21,2a10,10,0,0,0,2.87.43c2.25,0,4.19-.92,4.19-3.37,0-3.75-4.9-2.93-4.9-4.87a1.56,1.56,0,0,1,1.76-1.55A5.81,5.81,0,0,1,482,448l.21-1.84Zm2.53,6.93c0,3,1.7,4.22,4.56,4.22s4.56-1.23,4.56-4.22v-7.14h-2.24v6.45c0,1.91-.61,3.15-2.32,3.15s-2.32-1.24-2.32-3.15v-6.45h-2.24v7.14Zm19.58,2a6.2,6.2,0,0,1-2.44.46,3.68,3.68,0,0,1-3.8-4,3.73,3.73,0,0,1,3.75-4.05,4.57,4.57,0,0,1,2.41.59l.16-1.88a7.35,7.35,0,0,0-2.52-.47c-3.8,0-6.13,2.15-6.13,6s2.51,5.58,6.13,5.58a11.51,11.51,0,0,0,2.54-.35l-.1-1.87Zm1.67,2h2.24v-4.89h4.48v4.89H515V445.93h-2.24v4.52h-4.48v-4.52H506V457.1Zm11.39-4c0,3,1.7,4.22,4.56,4.22s4.56-1.23,4.56-4.22v-7.14h-2.24v6.45c0,1.91-.61,3.15-2.32,3.15s-2.32-1.24-2.32-3.15v-6.45h-2.24v7.14Zm11.44,4H531v-8.35h0l4.27,8.35H538V445.93h-2.14v8.36h0l-4.26-8.36h-2.75V457.1Zm20.45-10.89a11,11,0,0,0-3.28-.47c-3.79,0-6.13,2.15-6.13,6s2.51,5.58,6.13,5.58a14,14,0,0,0,3.61-.57v-6H545.1v1.76h2.37v2.91a5.87,5.87,0,0,1-1.47.16,3.67,3.67,0,0,1-3.79-4,3.8,3.8,0,0,1,4-4.05,7.28,7.28,0,0,1,2.88.59l.15-1.88Zm25.76,0a11,11,0,0,0-3.28-.47c-3.79,0-6.13,2.15-6.13,6s2.51,5.58,6.13,5.58a14,14,0,0,0,3.61-.57v-6h-4.51v1.76h2.37v2.91a5.93,5.93,0,0,1-1.47.16,3.67,3.67,0,0,1-3.79-4,3.8,3.8,0,0,1,4-4.05,7.28,7.28,0,0,1,2.88.59l.15-1.88Zm4.65,1.48h.74c1.12,0,2.37.12,2.37,1.46s-1.27,1.55-2.37,1.55h-.74v-3Zm-2.24,9.41h2.24v-4.64h.72c1,0,1.24.32,1.56,1.15l1.34,3.49h2.5l-1.8-4.37c-.22-.49-.57-1.1-1.18-1.15v0a2.55,2.55,0,0,0,2.3-2.59c0-3.11-2.86-3-5.26-3h-2.42V457.1Zm9.81-4c0,3,1.7,4.22,4.56,4.22s4.56-1.23,4.56-4.22v-7.14h-2.24v6.45c0,1.91-.61,3.15-2.32,3.15s-2.32-1.24-2.32-3.15v-6.45h-2.24v7.14Zm11.44,4h2.14v-8.35h0l4.27,8.35h2.73V445.93h-2.14v8.36h0l-4.26-8.36H598.7V457.1Zm11.58,0h3.06c3.42,0,6.45-1.15,6.45-5.58s-3-5.59-6.45-5.59h-3.06V457.1Zm2.24-9.41h1.25a3.83,3.83,0,0,1,0,7.65h-1.25v-7.65Zm9.24,9.41h6.62v-1.76H624v-3.13h4v-1.76h-4v-2.76h4.35v-1.76h-6.59V457.1Zm10.86-9.41h.74c1.12,0,2.36.12,2.36,1.46s-1.26,1.55-2.36,1.55h-.74v-3Zm-2.24,9.41h2.24v-4.64h.72c.94,0,1.23.32,1.55,1.15l1.35,3.49h2.49l-1.79-4.37c-.22-.49-.58-1.1-1.18-1.15v0a2.55,2.55,0,0,0,2.3-2.59c0-3.11-2.86-3-5.26-3h-2.42V457.1Zm9.78,0h2.14v-8.35h0l4.27,8.35h2.74V445.93H647.2v8.36h0l-4.25-8.36h-2.75V457.1Zm11.58,0h6.62v-1.76H654v-3.13h4v-1.76h-4v-2.76h4.35v-1.76h-6.59V457.1Zm8.73-4c0,3,1.7,4.22,4.56,4.22s4.56-1.23,4.56-4.22v-7.14h-2.24v6.45c0,1.91-.6,3.15-2.32,3.15s-2.31-1.24-2.31-3.15v-6.45h-2.25v7.14Zm11.56,4h6.62v-1.76h-4.38v-3.13h4v-1.76h-4v-2.76h4.35v-1.76H672V457.1Zm10.86-9.41h.74c1.12,0,2.36.12,2.36,1.46s-1.26,1.55-2.36,1.55h-.74v-3Zm-2.24,9.41h2.24v-4.64h.72c.94,0,1.23.32,1.55,1.15l1.35,3.49H689l-1.79-4.37c-.22-.49-.57-1.1-1.18-1.15v0a2.55,2.55,0,0,0,2.3-2.59c0-3.11-2.86-3-5.26-3h-2.42V457.1Zm9.81-4c0,3,1.7,4.22,4.56,4.22s4.56-1.23,4.56-4.22v-7.14h-2.24v6.45c0,1.91-.61,3.15-2.32,3.15s-2.32-1.24-2.32-3.15v-6.45h-2.24v7.14Zm11.44,4H704v-8.35h0l4.27,8.35h2.73V445.93h-2.14v8.36h0l-4.26-8.36H701.9V457.1Zm20.45-10.89a11,11,0,0,0-3.28-.47c-3.8,0-6.13,2.15-6.13,6s2.51,5.58,6.13,5.58a14,14,0,0,0,3.61-.57v-6h-4.51v1.76h2.37v2.91a5.93,5.93,0,0,1-1.47.16,3.68,3.68,0,0,1-3.8-4,3.8,3.8,0,0,1,4.05-4.05,7.28,7.28,0,0,1,2.88.59l.15-1.88Z" transform="translate(114.75 -308)"/><path class="cls-4" d="M-11.72,424.14a8.45,8.45,0,0,0-2.67-.4c-2,0-3.9.91-3.9,3.41,0,3.7,4.89,2.82,4.89,4.94,0,1-1.13,1.44-2,1.44a5.47,5.47,0,0,1-2.53-.68l-.21,2a10,10,0,0,0,2.87.43c2.25,0,4.19-.92,4.19-3.37,0-3.75-4.9-2.93-4.9-4.87a1.56,1.56,0,0,1,1.76-1.55,5.81,5.81,0,0,1,2.27.48l.21-1.84Zm4.64,11h2.24v-9.41h3.2v-1.76h-8.64v1.76h3.2v9.41Zm8.83-9.41h.74c1.12,0,2.37.12,2.37,1.46s-1.27,1.55-2.37,1.55H1.75v-3ZM-.49,435.1H1.75v-4.64h.72c.95,0,1.24.32,1.56,1.15l1.34,3.49h2.5l-1.8-4.37c-.22-.49-.57-1.1-1.18-1.15v0A2.55,2.55,0,0,0,7.19,427c0-3.11-2.86-3-5.26-3H-.49V435.1Zm15.94-4.32H12.18l1.62-4.61h0l1.62,4.61Zm-7.2,4.32h2.32l1-2.56h4.53l1,2.56h2.48l-4.38-11.17H12.6L8.25,435.1Zm18.83-11a8.45,8.45,0,0,0-2.67-.4c-2,0-3.9.91-3.9,3.41,0,3.7,4.89,2.82,4.89,4.94,0,1-1.14,1.44-2,1.44a5.47,5.47,0,0,1-2.53-.68l-.21,2a9.94,9.94,0,0,0,2.86.43c2.26,0,4.2-.92,4.2-3.37,0-3.75-4.9-2.93-4.9-4.87a1.56,1.56,0,0,1,1.76-1.55,5.81,5.81,0,0,1,2.27.48l.21-1.84Zm8.82,0a8.54,8.54,0,0,0-2.67-.4c-2,0-3.91.91-3.91,3.41,0,3.7,4.9,2.82,4.9,4.94,0,1-1.14,1.44-2,1.44a5.4,5.4,0,0,1-2.52-.68l-.21,2a9.89,9.89,0,0,0,2.86.43c2.26,0,4.19-.92,4.19-3.37,0-3.75-4.89-2.93-4.89-4.87a1.56,1.56,0,0,1,1.76-1.55,5.85,5.85,0,0,1,2.27.48l.21-1.84Zm2.61,11h6.62v-1.76H40.75v-3.13h4v-1.76h-4v-2.76H45.1v-1.76H38.51V435.1Zm8.7,0h2.14v-8.35h0l4.27,8.35h2.73V423.93H54.25v8.36h0L50,423.93H47.21V435.1Zm39.23-4.32H83.17l1.62-4.61h0l1.62,4.61Zm-7.2,4.32h2.32l1-2.56h4.53l1,2.56H90.5l-4.38-11.17H83.59L79.24,435.1Zm12.54-4c0,3,1.7,4.22,4.56,4.22s4.56-1.23,4.56-4.22v-7.14H98.66v6.45c0,1.91-.61,3.15-2.32,3.15S94,432.29,94,430.38v-6.45H91.78v7.14Zm17.76-6.93a8.49,8.49,0,0,0-2.67-.4c-2,0-3.91.91-3.91,3.41,0,3.7,4.9,2.82,4.9,4.94,0,1-1.14,1.44-2,1.44a5.47,5.47,0,0,1-2.53-.68l-.21,2a9.89,9.89,0,0,0,2.86.43c2.26,0,4.2-.92,4.2-3.37,0-3.75-4.9-2.93-4.9-4.87a1.56,1.56,0,0,1,1.76-1.55,5.85,5.85,0,0,1,2.27.48l.21-1.84Zm8.82,0a8.55,8.55,0,0,0-2.68-.4c-2,0-3.9.91-3.9,3.41,0,3.7,4.9,2.82,4.9,4.94,0,1-1.14,1.44-2,1.44a5.47,5.47,0,0,1-2.53-.68l-.2,2a9.84,9.84,0,0,0,2.86.43c2.26,0,4.19-.92,4.19-3.37,0-3.75-4.89-2.93-4.89-4.87a1.56,1.56,0,0,1,1.76-1.55,5.88,5.88,0,0,1,2.27.48l.21-1.84ZM129,433.07a6.29,6.29,0,0,1-2.45.46,3.67,3.67,0,0,1-3.79-4,3.73,3.73,0,0,1,3.74-4.05,4.63,4.63,0,0,1,2.42.59l.16-1.88a7.45,7.45,0,0,0-2.53-.47c-3.79,0-6.13,2.15-6.13,6s2.51,5.58,6.13,5.58a11.35,11.35,0,0,0,2.54-.35l-.09-1.87Zm1.66,2h2.24v-4.89h4.48v4.89h2.24V423.93h-2.24v4.52H132.9v-4.52h-2.24V435.1Zm13.52-9.41h.74c1.12,0,2.36.12,2.36,1.46s-1.26,1.55-2.36,1.55h-.74v-3Zm-2.24,9.41h2.24v-4.64h.72c.94,0,1.23.32,1.55,1.15l1.35,3.49h2.49l-1.79-4.37c-.22-.49-.58-1.1-1.18-1.15v0a2.55,2.55,0,0,0,2.3-2.59c0-3.11-2.86-3-5.26-3h-2.42V435.1Zm9.89,0h6.62v-1.76h-4.38v-3.13h4v-1.76h-4v-2.76h4.35v-1.76h-6.59V435.1Zm8.62,0h2.24V423.93h-2.24V435.1Zm6.8-5h1.06c1.12,0,2.3.22,2.3,1.68,0,1.3-1.26,1.55-2.3,1.55h-1.06v-3.23Zm0-4.42h.86c1,0,2.16.1,2.16,1.4s-1.16,1.36-2.11,1.36h-.91v-2.76ZM165,435.1h3.91c1.4,0,3.93-.41,3.93-3.23a2.59,2.59,0,0,0-2.56-2.54v0a2.49,2.49,0,0,0,2.23-2.49c0-2.45-2.16-2.87-3.6-2.87H165V435.1Zm9.62-4c0,3,1.69,4.22,4.56,4.22s4.56-1.23,4.56-4.22v-7.14h-2.24v6.45c0,1.91-.61,3.15-2.32,3.15s-2.32-1.24-2.32-3.15v-6.45h-2.24v7.14Zm11.44,4h2.14v-8.35h0l4.28,8.35h2.73V423.93h-2.14v8.36h0l-4.26-8.36h-2.75V435.1Zm11.47,0h2.14v-8.35h0L204,435.1h2.73V423.93h-2.14v8.36h0l-4.26-8.36h-2.75V435.1ZM218,424.21a11,11,0,0,0-3.28-.47c-3.8,0-6.13,2.15-6.13,6s2.51,5.58,6.13,5.58a14,14,0,0,0,3.61-.57v-6h-4.51v1.76h2.37v2.91a5.93,5.93,0,0,1-1.47.16,3.68,3.68,0,0,1-3.8-4A3.8,3.8,0,0,1,215,425.5a7.28,7.28,0,0,1,2.88.59l.15-1.88Zm24.09,10.89h2.14v-8.35h0l4.27,8.35h2.74V423.93h-2.14v8.36h0l-4.25-8.36h-2.75V435.1Zm17.63-4.32h-3.26l1.61-4.61h0l1.62,4.61Zm-7.2,4.32h2.32l1-2.56h4.53l1,2.56h2.48l-4.38-11.17h-2.53l-4.35,11.17Zm20.66-2a6.29,6.29,0,0,1-2.45.46,3.68,3.68,0,0,1-3.8-4,3.74,3.74,0,0,1,3.75-4.05,4.57,4.57,0,0,1,2.41.59l.16-1.88a7.35,7.35,0,0,0-2.52-.47c-3.8,0-6.13,2.15-6.13,6s2.51,5.58,6.13,5.58a11.35,11.35,0,0,0,2.54-.35l-.09-1.87Zm1.66,2h2.24v-4.89h4.48v4.89h2.24V423.93h-2.24v4.52h-4.48v-4.52h-2.24V435.1Zm13.5,0h2.24v-9.41h3.2v-1.76h-8.64v1.76h3.2v9.41Zm8.84-9.41h.73c1.12,0,2.37.12,2.37,1.46s-1.26,1.55-2.37,1.55h-.73v-3Zm-2.25,9.41h2.25v-4.64h.72c.94,0,1.23.32,1.55,1.15l1.34,3.49h2.5l-1.8-4.37c-.22-.49-.57-1.1-1.18-1.15v0a2.55,2.55,0,0,0,2.31-2.59c0-3.11-2.87-3-5.27-3h-2.42V435.1Zm15.94-4.32H307.6l1.61-4.61h0l1.62,4.61Zm-7.2,4.32H306l1-2.56h4.52l1,2.56h2.47l-4.38-11.17H308l-4.35,11.17Zm21.49-10.89a11,11,0,0,0-3.28-.47c-3.79,0-6.13,2.15-6.13,6s2.51,5.58,6.13,5.58a14,14,0,0,0,3.61-.57v-6H321v1.76h2.37v2.91a5.82,5.82,0,0,1-1.47.16,3.67,3.67,0,0,1-3.79-4,3.8,3.8,0,0,1,4-4.05,7.28,7.28,0,0,1,2.88.59l.15-1.88Zm8.81-.07a8.45,8.45,0,0,0-2.67-.4c-2,0-3.9.91-3.9,3.41,0,3.7,4.89,2.82,4.89,4.94,0,1-1.13,1.44-2,1.44a5.47,5.47,0,0,1-2.53-.68l-.21,2a10,10,0,0,0,2.87.43c2.25,0,4.19-.92,4.19-3.37,0-3.75-4.9-2.93-4.9-4.87a1.56,1.56,0,0,1,1.76-1.55,5.89,5.89,0,0,1,2.28.48l.2-1.84Zm2.61,11h2.15v-9.18l0,0,3,9.21h2.14l3-9.21h0v9.21h2.14V423.93H345.5l-2.66,8.47h0l-2.65-8.47h-3.59V435.1Zm21.07-4.32h-3.26l1.62-4.61h0l1.61,4.61Zm-7.2,4.32h2.32l1-2.56h4.53l1,2.56h2.48l-4.39-11.17H354.8l-4.36,11.17Zm12.52,0h2.14v-8.35h0l4.27,8.35h2.74V423.93H370v8.36h0l-4.25-8.36H363V435.1Zm17.63-4.32h-3.27l1.62-4.61h0l1.62,4.61Zm-7.2,4.32h2.32l1-2.56h4.53l1,2.56h2.48l-4.38-11.17h-2.53l-4.35,11.17Zm21.49-10.89a11,11,0,0,0-3.28-.47c-3.8,0-6.13,2.15-6.13,6s2.51,5.58,6.13,5.58a14,14,0,0,0,3.61-.57v-6H390.7v1.76h2.37v2.91a5.93,5.93,0,0,1-1.47.16,3.68,3.68,0,0,1-3.8-4,3.8,3.8,0,0,1,4.05-4.05,7.28,7.28,0,0,1,2.88.59l.15-1.88Zm2.6,10.89h6.63v-1.76h-4.39v-3.13h4v-1.76h-4v-2.76h4.36v-1.76h-6.6V435.1Zm8.82,0h2.14v-9.18l0,0,3,9.21h2.15l3-9.21h0v9.21h2.14V423.93h-3.58l-2.66,8.47h0l-2.66-8.47H406.3V435.1Zm15,0H428v-1.76h-4.39v-3.13h4v-1.76h-4v-2.76h4.36v-1.76h-6.6V435.1Zm8.71,0h2.14v-8.35h0l4.27,8.35h2.74V423.93h-2.14v8.36h0l-4.26-8.36H430V435.1Zm13.61,0h2.24v-9.41h3.2v-1.76h-8.64v1.76h3.2v9.41Zm52.68,0h2.75l3.76-11.17h-2.22l-2.83,8.77h0l-2.86-8.77h-2.4l3.84,11.17Zm7.89,0h6.62v-1.76h-4.38v-3.13h4v-1.76h-4v-2.76h4.35v-1.76h-6.59V435.1Zm10.86-9.41h.74c1.12,0,2.37.12,2.37,1.46s-1.27,1.55-2.37,1.55h-.74v-3Zm-2.24,9.41h2.24v-4.64h.72c1,0,1.24.32,1.55,1.15l1.35,3.49h2.49l-1.79-4.37c-.22-.49-.57-1.1-1.18-1.15v0a2.55,2.55,0,0,0,2.3-2.59c0-3.11-2.86-3-5.26-3h-2.42V435.1Zm9.89,0H525v-5.18h0l4,5.18h2.93l-4.79-5.9,4.59-5.27H529l-4,4.8v-4.8h-2.24V435.1Zm10.59,0h6.63v-1.76h-4.39v-3.13h4v-1.76h-4v-2.76h4.36v-1.76h-6.6V435.1Zm8.82,0h2.24v-4.89h4.48v4.89h2.24V423.93h-2.24v4.52h-4.48v-4.52h-2.24V435.1Zm13.52-9.41h.73c1.12,0,2.37.12,2.37,1.46s-1.26,1.55-2.37,1.55h-.73v-3Zm-2.24,9.41h2.24v-4.64h.72c.94,0,1.23.32,1.55,1.15l1.34,3.49h2.5L560,430.73c-.23-.49-.58-1.1-1.19-1.15v0a2.55,2.55,0,0,0,2.31-2.59c0-3.11-2.87-3-5.27-3h-2.41V435.1Zm16.09-11a8.45,8.45,0,0,0-2.67-.4c-2,0-3.9.91-3.9,3.41,0,3.7,4.89,2.82,4.89,4.94,0,1-1.13,1.44-2,1.44a5.47,5.47,0,0,1-2.53-.68l-.21,2a10,10,0,0,0,2.87.43c2.25,0,4.19-.92,4.19-3.37,0-3.75-4.9-2.93-4.9-4.87A1.56,1.56,0,0,1,567,425.5a5.89,5.89,0,0,1,2.28.48l.2-1.84Zm8.66,6.64H574.9l1.61-4.61h0l1.62,4.61ZM571,435.1h2.32l1-2.56h4.52l1,2.56h2.48l-4.38-11.17h-2.53L571,435.1Zm12.51,0h2.15v-8.35h0l4.27,8.35h2.74V423.93h-2.15v8.36h0l-4.26-8.36h-2.75V435.1Zm11.59,0h6.57v-1.76H597.3v-9.41h-2.24V435.1Zm14-4.32h-3.26l1.62-4.61h0l1.61,4.61Zm-7.2,4.32h2.32l1-2.56h4.53l1,2.56h2.48l-4.39-11.17h-2.52l-4.36,11.17Zm21.49-10.89a10.93,10.93,0,0,0-3.28-.47c-3.79,0-6.13,2.15-6.13,6s2.51,5.58,6.13,5.58a14.15,14.15,0,0,0,3.62-.57v-6h-4.51v1.76h2.36v2.91a5.82,5.82,0,0,1-1.47.16,3.68,3.68,0,0,1-3.79-4,3.8,3.8,0,0,1,4-4.05,7.35,7.35,0,0,1,2.88.59l.14-1.88Zm2.61,10.89h6.62v-1.76h-4.38v-3.13h4v-1.76h-4v-2.76h4.35v-1.76h-6.59V435.1Zm32.46-9.41h.78c1.16,0,2.13.45,2.13,1.75s-1,1.66-2.13,1.66h-.78v-3.41Zm-2.24,9.41h2.24v-4.24h.94c2.4,0,4.31-.94,4.31-3.55s-2.23-3.38-4.66-3.38h-2.83V435.1Zm11.06-9.41h.73c1.12,0,2.37.12,2.37,1.46s-1.27,1.55-2.37,1.55h-.73v-3ZM665,435.1h2.24v-4.64h.71c1,0,1.24.32,1.56,1.15l1.34,3.49h2.5l-1.79-4.37c-.23-.49-.58-1.1-1.19-1.15v0a2.55,2.55,0,0,0,2.31-2.59c0-3.11-2.87-3-5.27-3H665V435.1Zm9.34-5.61c0,3.42,1.89,5.8,5.47,5.8s5.47-2.43,5.47-5.8-2-5.75-5.47-5.75-5.47,2.32-5.47,5.75Zm2.33,0c0-2,.92-4,3.14-4s3.14,2,3.14,4-.85,4-3.14,4-3.14-2-3.14-4Zm9.64,5.6a6.29,6.29,0,0,0,1.71.2,2.8,2.8,0,0,0,3-2.84v-8.52h-2.24v7.44c0,.8,0,2-1.45,2a2.93,2.93,0,0,1-1.07-.19v1.94Zm7.08,0H700v-1.76h-4.39v-3.13h4v-1.76h-4v-2.76H700v-1.76h-6.6V435.1Zm8.82,0h2.24v-5.18h0l4,5.18h2.93l-4.79-5.9,4.59-5.27h-2.75l-4,4.8v-4.8h-2.24V435.1Zm12.62,0H717v-9.41h3.2v-1.76h-8.64v1.76h3.2v9.41Zm8.39-3.42v-1.76H719v1.76Z" transform="translate(114.75 -308)"/><path class="cls-4" d="M-15.88,403.69h.79c1.15,0,2.12.45,2.12,1.75s-1,1.66-2.12,1.66h-.79v-3.41Zm-2.24,9.41h2.24v-4.24h1c2.4,0,4.3-.94,4.3-3.55s-2.22-3.38-4.66-3.38h-2.83V413.1Zm9,0h6.58v-1.76H-6.87v-9.41H-9.11V413.1Zm14-4.32H1.59l1.62-4.61h0l1.62,4.61Zm-7.2,4.32H0l1-2.56H5.48l1,2.56H8.92L4.54,401.93H2L-2.34,413.1Zm12.51,0h2.14v-8.35h0l4.27,8.35h2.73V401.93H17.21v8.36h0l-4.26-8.36H10.17V413.1Zm11.5-4c0,3,1.7,4.22,4.56,4.22s4.56-1.23,4.56-4.22v-7.14H28.55v6.45c0,1.91-.6,3.15-2.32,3.15s-2.32-1.24-2.32-3.15v-6.45H21.67v7.14Zm11.44,4h2.15v-8.35h0l4.27,8.35H42.3V401.93H40.15v8.36h0l-4.25-8.36H33.11V413.1Zm20.45-10.89a10.93,10.93,0,0,0-3.28-.47c-3.79,0-6.13,2.15-6.13,6s2.52,5.58,6.13,5.58a14.15,14.15,0,0,0,3.62-.57v-6H49.39v1.76h2.36v2.91a5.82,5.82,0,0,1-1.47.16,3.68,3.68,0,0,1-3.79-4,3.8,3.8,0,0,1,4-4.05,7.35,7.35,0,0,1,2.88.59l.14-1.88ZM72.24,413.1H75l3.76-11.17H76.53L73.7,410.7h0l-2.87-8.77H68.4l3.84,11.17Zm7.89,0h6.62v-1.76H82.37v-3.13h4v-1.76h-4v-2.76h4.35v-1.76H80.13V413.1ZM91,403.69h.74c1.12,0,2.37.12,2.37,1.46s-1.27,1.55-2.37,1.55H91v-3Zm-2.24,9.41H91v-4.64h.72c1,0,1.24.32,1.56,1.15l1.34,3.49h2.5l-1.8-4.37c-.22-.49-.57-1.1-1.18-1.15v0a2.55,2.55,0,0,0,2.3-2.59c0-3.11-2.86-3-5.26-3H88.75V413.1Zm9.89,0h2.24v-5.18h0l4,5.18h2.93l-4.79-5.9,4.6-5.27h-2.76l-4,4.8v-4.8H98.64V413.1Zm10.59,0h6.63v-1.76h-4.39v-3.13h4v-1.76h-4v-2.76h4.36v-1.76h-6.6V413.1Zm8.82,0h2.24v-4.89h4.48v4.89H127V401.93h-2.24v4.52h-4.48v-4.52h-2.24V413.1Zm13.52-9.41h.74c1.12,0,2.36.12,2.36,1.46s-1.26,1.55-2.36,1.55h-.74v-3Zm-2.24,9.41h2.24v-4.64h.72c.94,0,1.23.32,1.55,1.15l1.35,3.49h2.49l-1.79-4.37c-.22-.49-.58-1.1-1.18-1.15v0A2.55,2.55,0,0,0,137,405c0-3.11-2.86-3-5.26-3h-2.42V413.1Zm16.1-11a8.55,8.55,0,0,0-2.68-.4c-2,0-3.9.91-3.9,3.41,0,3.7,4.9,2.82,4.9,4.94,0,1-1.14,1.44-2,1.44a5.47,5.47,0,0,1-2.53-.68l-.2,2a9.84,9.84,0,0,0,2.86.43c2.26,0,4.19-.92,4.19-3.37,0-3.75-4.89-2.93-4.89-4.87A1.56,1.56,0,0,1,143,403.5a5.88,5.88,0,0,1,2.27.48l.21-1.84Zm4.65,1.55h.79c1.15,0,2.12.45,2.12,1.75s-1,1.66-2.12,1.66h-.79v-3.41Zm-2.24,9.41h2.24v-4.24H151c2.4,0,4.3-.94,4.3-3.55s-2.22-3.38-4.66-3.38h-2.83V413.1Zm9,0h6.58v-1.76h-4.34v-9.41h-2.24V413.1Zm14-4.32h-3.27l1.62-4.61h0l1.62,4.61Zm-7.2,4.32h2.32l1-2.56h4.53l1,2.56h2.48l-4.38-11.17H168l-4.35,11.17Zm12.51,0h2.14v-8.35h0l4.28,8.35h2.73V401.93h-2.14v8.36h0l-4.26-8.36h-2.75V413.1Zm11.5-4c0,3,1.7,4.22,4.56,4.22s4.56-1.23,4.56-4.22v-7.14h-2.24v6.45c0,1.91-.61,3.15-2.32,3.15s-2.32-1.24-2.32-3.15v-6.45h-2.24v7.14Zm11.44,4h2.15v-8.35h0l4.27,8.35h2.74V401.93h-2.15v8.36h0l-4.25-8.36h-2.76V413.1Zm20.45-10.89a10.93,10.93,0,0,0-3.28-.47c-3.79,0-6.13,2.15-6.13,6s2.52,5.58,6.13,5.58a14.15,14.15,0,0,0,3.62-.57v-6h-4.51v1.76h2.36v2.91a5.82,5.82,0,0,1-1.47.16,3.68,3.68,0,0,1-3.79-4,3.8,3.8,0,0,1,4.05-4.05,7.35,7.35,0,0,1,2.88.59l.14-1.88Zm16,10.89h2.14v-9.18l0,0,3,9.21h2.15l3-9.21h0v9.21H248V401.93h-3.58l-2.66,8.47h0l-2.66-8.47H235.5V413.1ZM250,407.49c0,3.42,1.89,5.8,5.47,5.8s5.47-2.43,5.47-5.8-2-5.75-5.47-5.75-5.47,2.32-5.47,5.75Zm2.33,0c0-2,.92-4,3.14-4s3.14,2,3.14,4-.85,4-3.14,4-3.14-2-3.14-4Zm12.82.62h1.06c1.12,0,2.3.22,2.3,1.68,0,1.3-1.26,1.55-2.3,1.55h-1.06v-3.23Zm0-4.42H266c1,0,2.16.1,2.16,1.4s-1.16,1.36-2.11,1.36h-.91v-2.76Zm-2.24,9.41h3.9c1.41,0,3.94-.41,3.94-3.23a2.59,2.59,0,0,0-2.56-2.54v0a2.48,2.48,0,0,0,2.22-2.49c0-2.45-2.16-2.87-3.6-2.87h-3.9V413.1Zm9.5,0h2.24V401.93h-2.24V413.1Zm4.56,0h6.58v-1.76h-4.34v-9.41H277V413.1Zm7.73,0h2.24V401.93h-2.24V413.1Zm6.59,0h2.24v-9.41h3.2v-1.76h-8.64v1.76h3.2v9.41Zm11.56-4.32h-3.27l1.62-4.61h0l1.62,4.61Zm-7.2,4.32H298l1-2.56h4.53l1,2.56h2.48l-4.38-11.17H300l-4.35,11.17ZM302,399v1.86h1.85V399Zm-1.44,1.86V399h-1.86v1.86ZM309,413.1h2.24v-9.41h3.2v-1.76H305.8v1.76H309v9.41Zm13-11a8.45,8.45,0,0,0-2.67-.4c-2,0-3.9.91-3.9,3.41,0,3.7,4.89,2.82,4.89,4.94,0,1-1.13,1.44-2,1.44a5.47,5.47,0,0,1-2.53-.68l-.21,2a10,10,0,0,0,2.87.43c2.25,0,4.19-.92,4.19-3.37,0-3.75-4.9-2.93-4.9-4.87a1.56,1.56,0,0,1,1.76-1.55,5.89,5.89,0,0,1,2.28.48l.2-1.84Zm2.61,11h2.24v-5.18h0l4,5.18h2.93L329,407.2l4.6-5.27h-2.76l-4,4.8v-4.8H324.6V413.1Zm10-5.61c0,3.42,1.89,5.8,5.47,5.8s5.47-2.43,5.47-5.8-2-5.75-5.47-5.75-5.47,2.32-5.47,5.75Zm2.34,0c0-2,.91-4,3.13-4s3.14,2,3.14,4-.85,4-3.14,4-3.13-2-3.13-4Zm10.46,5.61h2.14v-8.35h0l4.27,8.35h2.73V401.93h-2.14v8.36h0l-4.26-8.36h-2.75V413.1Zm10.86,0h7.75v-1.76h-5.41l5.3-7.58v-1.83h-7.43v1.76h5l-5.25,7.59v1.82Zm9.54,0h6.62v-1.76h-4.38v-3.13h4v-1.76h-4v-2.76h4.35v-1.76h-6.59V413.1Zm10.86-9.41h.79c1.15,0,2.13.45,2.13,1.75s-1,1.66-2.13,1.66h-.79v-3.41Zm-2.24,9.41h2.24v-4.24h1c2.4,0,4.3-.94,4.3-3.55s-2.22-3.38-4.65-3.38h-2.84V413.1Zm11,0h2.24v-9.41H393v-1.76h-8.64v1.76h3.2v9.41Zm22.21-9.41h.73c1.12,0,2.37.12,2.37,1.46s-1.26,1.55-2.37,1.55h-.73v-3Zm-2.24,9.41h2.24v-4.64h.72c.94,0,1.23.32,1.55,1.15l1.34,3.49h2.5L414,408.73c-.23-.49-.58-1.1-1.19-1.15v0a2.55,2.55,0,0,0,2.31-2.59c0-3.11-2.87-3-5.27-3h-2.41V413.1Zm15.93-4.32h-3.26l1.61-4.61h0l1.61,4.61Zm-7.2,4.32h2.32l1-2.56H424l1,2.56h2.48l-4.39-11.17h-2.53l-4.35,11.17Zm12.63,0h3.05c3.43,0,6.45-1.15,6.45-5.58s-3-5.59-6.45-5.59h-3.05V413.1Zm2.24-9.41h1.24a3.83,3.83,0,0,1,0,7.65h-1.24v-7.65ZM443,413.1h2.75l3.76-11.17H447.3l-2.83,8.77h0l-2.86-8.77h-2.4L443,413.1Zm7.89,0h6.62v-1.76h-4.38v-3.13h4v-1.76h-4v-2.76h4.35v-1.76H450.9V413.1Zm10.86-9.41h.74c1.12,0,2.37.12,2.37,1.46s-1.27,1.55-2.37,1.55h-.74v-3Zm-2.24,9.41h2.24v-4.64h.72c.95,0,1.24.32,1.55,1.15l1.35,3.49h2.5l-1.8-4.37c-.22-.49-.57-1.1-1.18-1.15v0a2.55,2.55,0,0,0,2.3-2.59c0-3.11-2.86-3-5.26-3h-2.42V413.1Zm9.89,0h2.24v-5.18h0l4,5.18h2.93l-4.79-5.9,4.59-5.27h-2.75l-4,4.8v-4.8h-2.24V413.1Zm10.59,0h6.63v-1.76h-4.39v-3.13h4v-1.76h-4v-2.76h4.35v-1.76H480V413.1Zm8.82,0h2.24v-4.89h4.48v4.89h2.24V401.93h-2.24v4.52h-4.48v-4.52h-2.24V413.1Zm13.52-9.41h.74c1.12,0,2.36.12,2.36,1.46s-1.26,1.55-2.36,1.55h-.74v-3Zm-2.24,9.41h2.24v-4.64h.72c.94,0,1.23.32,1.55,1.15L506,413.1h2.49l-1.79-4.37c-.22-.49-.58-1.1-1.19-1.15v0a2.55,2.55,0,0,0,2.31-2.59c0-3.11-2.87-3-5.26-3H500.1V413.1Zm16.09-11a8.45,8.45,0,0,0-2.67-.4c-2,0-3.9.91-3.9,3.41,0,3.7,4.89,2.82,4.89,4.94,0,1-1.13,1.44-2,1.44a5.47,5.47,0,0,1-2.53-.68l-.21,2a10,10,0,0,0,2.87.43c2.25,0,4.19-.92,4.19-3.37,0-3.75-4.9-2.93-4.9-4.87a1.56,1.56,0,0,1,1.76-1.55A5.89,5.89,0,0,1,516,404l.2-1.84Zm8.66,6.64h-3.26l1.61-4.61h0l1.62,4.61Zm-7.2,4.32H520l1-2.56h4.52l1,2.56h2.48l-4.38-11.17H522l-4.35,11.17Zm12.51,0h2.15v-8.35h0l4.27,8.35h2.74V401.93H537.2v8.36h0l-4.26-8.36h-2.75V413.1Zm11.59,0h6.57v-1.76H544v-9.41h-2.24V413.1Zm14-4.32h-3.26l1.62-4.61h0l1.61,4.61Zm-7.2,4.32h2.32l1-2.56h4.53l1,2.56h2.48l-4.39-11.17h-2.52l-4.36,11.17ZM570,402.21a10.93,10.93,0,0,0-3.28-.47c-3.79,0-6.13,2.15-6.13,6s2.52,5.58,6.13,5.58a14.15,14.15,0,0,0,3.62-.57v-6h-4.51v1.76h2.36v2.91a5.82,5.82,0,0,1-1.47.16,3.68,3.68,0,0,1-3.79-4A3.8,3.8,0,0,1,567,403.5a7.35,7.35,0,0,1,2.88.59l.14-1.88Zm2.61,10.89h6.62v-1.76h-4.38v-3.13h4v-1.76h-4v-2.76h4.35v-1.76h-6.59V413.1Zm8.7,0h2.15v-8.35h0l4.27,8.35h2.74V401.93h-2.15v8.36h0l-4.25-8.36h-2.76V413.1Zm24.76,0h2.25V401.93h-2.25V413.1Zm4.45,0h2.15v-8.35h0L617,413.1h2.74V401.93h-2.15v8.36h0l-4.25-8.36h-2.76V413.1Zm11.47,0h2.15v-8.35h0l4.27,8.35h2.74V401.93H629v8.36h0l-4.25-8.36H622V413.1Zm11.59,0h6.62v-1.76h-4.38v-3.13h4v-1.76h-4v-2.76h4.35v-1.76h-6.59V413.1Zm10.86-9.41h.74c1.12,0,2.37.12,2.37,1.46s-1.27,1.55-2.37,1.55h-.74v-3Zm-2.24,9.41h2.24v-4.64h.72c1,0,1.24.32,1.56,1.15l1.34,3.49h2.49l-1.79-4.37c-.22-.49-.57-1.1-1.18-1.15v0a2.55,2.55,0,0,0,2.3-2.59c0-3.11-2.86-3-5.26-3H642.2V413.1Zm9.35-5.61c0,3.42,1.88,5.8,5.47,5.8s5.47-2.43,5.47-5.8-2-5.75-5.47-5.75-5.47,2.32-5.47,5.75Zm2.33,0c0-2,.91-4,3.14-4s3.13,2,3.13,4-.84,4-3.13,4-3.14-2-3.14-4Zm3.86-8.52v1.86h1.85V399Zm-1.44,1.86V399h-1.86v1.86Zm10.21,2.86h.73c1.12,0,2.37.12,2.37,1.46s-1.26,1.55-2.37,1.55h-.73v-3Zm-2.24,9.41h2.24v-4.64h.72c.94,0,1.23.32,1.55,1.15l1.34,3.49h2.5l-1.79-4.37c-.23-.49-.58-1.1-1.19-1.15v0A2.55,2.55,0,0,0,672,405c0-3.11-2.87-3-5.27-3h-2.41V413.1Zm11.63,0h2.24v-9.41h3.2v-1.76H672.7v1.76h3.2v9.41Zm6.78,0h6.58v-1.76h-4.34v-9.41h-2.24V413.1Zm7.73,0h2.24V401.93h-2.24V413.1Zm12.59-2a6.28,6.28,0,0,1-2.44.46,3.68,3.68,0,0,1-3.8-4,3.73,3.73,0,0,1,3.75-4.05,4.57,4.57,0,0,1,2.41.59l.16-1.88a7.35,7.35,0,0,0-2.52-.47c-3.8,0-6.13,2.15-6.13,6s2.51,5.58,6.13,5.58a11.51,11.51,0,0,0,2.54-.35l-.1-1.87Zm1.67,2h2.24v-4.89h4.48v4.89h2.24V401.93h-2.24v4.52h-4.48v-4.52h-2.24V413.1Zm11.47,0h6.62v-1.76h-4.38v-3.13h4v-1.76h-4v-2.76h4.35v-1.76h-6.59V413.1Z" transform="translate(114.75 -308)"/><path class="cls-4" d="M-110.62,391.1h3.06c3.42,0,6.44-1.15,6.44-5.58s-3-5.59-6.44-5.59h-3.06V391.1Zm2.24-9.41h1.25a3.66,3.66,0,0,1,3.68,3.83,3.65,3.65,0,0,1-3.68,3.82h-1.25v-7.65Zm9.23,9.41h6.63v-1.76h-4.39v-3.13h4v-1.76h-4v-2.76h4.35v-1.76h-6.59V391.1Zm16.85-2a6.29,6.29,0,0,1-2.45.46,3.68,3.68,0,0,1-3.79-4,3.73,3.73,0,0,1,3.74-4.05,4.63,4.63,0,0,1,2.42.59l.16-1.88a7.4,7.4,0,0,0-2.53-.47c-3.79,0-6.13,2.15-6.13,6s2.52,5.58,6.13,5.58a11.52,11.52,0,0,0,2.55-.35l-.1-1.87Zm1.66,2h2.24v-5.18h0l4,5.18h2.93l-4.78-5.9,4.59-5.27h-2.75l-4,4.8v-4.8h-2.24V391.1Zm10.6,0h6.62v-1.76H-67.8v-3.13h4v-1.76h-4v-2.76h4.35v-1.76H-70V391.1Zm8.7,0h2.14v-8.35h0l4.27,8.35h2.73V379.93H-54.3v8.36h0l-4.26-8.36h-2.75V391.1Zm17.79-11a8.45,8.45,0,0,0-2.67-.4c-2,0-3.9.91-3.9,3.41,0,3.7,4.89,2.82,4.89,4.94,0,1-1.13,1.44-2,1.44a5.47,5.47,0,0,1-2.53-.68l-.21,2a10,10,0,0,0,2.87.43c2.25,0,4.19-.92,4.19-3.37,0-3.75-4.9-2.93-4.9-4.87A1.56,1.56,0,0,1-46,381.5a5.81,5.81,0,0,1,2.27.48l.21-1.84Zm8.66,6.64h-3.27l1.62-4.61h0l1.62,4.61Zm-7.2,4.32h2.32l1-2.56h4.53l1,2.56h2.48l-4.38-11.17h-2.53l-4.35,11.17Zm12.51,0h2.14v-8.35h0l4.27,8.35h2.73V379.93h-2.14v8.36h0l-4.26-8.36h-2.75V391.1Zm11.39,0h2.24V379.93h-2.24V391.1Zm4.56,0H-7v-1.76h-4.38v-3.13h4v-1.76h-4v-2.76H-7v-1.76h-6.59V391.1Zm10.86-9.41H-2c1.12,0,2.37.12,2.37,1.46S-.92,384.7-2,384.7h-.74v-3ZM-5,391.1h2.24v-4.64H-2c.95,0,1.24.32,1.56,1.15L.85,391.1h2.5l-1.8-4.37c-.22-.49-.57-1.1-1.18-1.15v0A2.56,2.56,0,0,0,2.68,383c0-3.11-2.87-3-5.27-3H-5V391.1Zm9.81-4c0,3,1.7,4.22,4.56,4.22s4.56-1.23,4.56-4.22v-7.14H11.68v6.45c0,1.91-.6,3.15-2.32,3.15S7,388.29,7,386.38v-6.45H4.8v7.14Zm11.44,4h2.15v-8.35h0l4.27,8.35h2.74V379.93H23.28v8.36h0L19,379.93H16.24V391.1Zm20.45-10.89a10.93,10.93,0,0,0-3.28-.47c-3.79,0-6.13,2.15-6.13,6s2.52,5.58,6.13,5.58a14.15,14.15,0,0,0,3.62-.57v-6H32.51v1.76h2.37v2.91a5.82,5.82,0,0,1-1.47.16,3.68,3.68,0,0,1-3.79-4,3.8,3.8,0,0,1,4.05-4.05,7.35,7.35,0,0,1,2.88.59l.14-1.88Zm32.15-.07a8.45,8.45,0,0,0-2.67-.4c-2,0-3.9.91-3.9,3.41,0,3.7,4.89,2.82,4.89,4.94,0,1-1.13,1.44-2,1.44a5.47,5.47,0,0,1-2.53-.68l-.21,2a10,10,0,0,0,2.87.43c2.25,0,4.19-.92,4.19-3.37,0-3.75-4.9-2.93-4.9-4.87a1.56,1.56,0,0,1,1.76-1.55,5.81,5.81,0,0,1,2.27.48l.21-1.84Zm4.64,11h2.24v-9.41h3.2v-1.76H70.28v1.76h3.2v9.41ZM85,386.78H81.77l1.62-4.61h0L85,386.78Zm-7.2,4.32h2.32l1-2.56h4.53l1,2.56H89.1l-4.39-11.17H82.19L77.83,391.1Zm12.63,0h3.05c3.43,0,6.45-1.15,6.45-5.58s-3-5.59-6.45-5.59H90.46V391.1Zm2.24-9.41H94a3.83,3.83,0,0,1,0,7.65H92.7v-7.65ZM104,391.1h2.24v-9.41h3.2v-1.76h-8.64v1.76H104v9.41Zm8.83-9.41h.79c1.15,0,2.13.45,2.13,1.75s-1,1.66-2.13,1.66h-.79v-3.41Zm-2.24,9.41h2.24v-4.24h.95c2.4,0,4.3-.94,4.3-3.55s-2.22-3.38-4.65-3.38h-2.84V391.1Zm9,0h6.58v-1.76H121.8v-9.41h-2.24V391.1Zm14-4.32h-3.26l1.61-4.61h0l1.62,4.61Zm-7.2,4.32h2.32l1-2.56h4.52l1,2.56h2.48l-4.38-11.17h-2.53l-4.35,11.17Zm12.51,0H141v-8.35h0l4.27,8.35H148V379.93h-2.15v8.36h0l-4.26-8.36h-2.75V391.1Zm11.51-4c0,3,1.69,4.22,4.55,4.22s4.57-1.23,4.57-4.22v-7.14h-2.24v6.45c0,1.91-.61,3.15-2.33,3.15s-2.32-1.24-2.32-3.15v-6.45h-2.23v7.14Zm11.44,4h2.14v-8.35h0l4.27,8.35H171V379.93h-2.14v8.36h0l-4.25-8.36h-2.75V391.1Zm20.44-10.89a10.93,10.93,0,0,0-3.28-.47c-3.79,0-6.12,2.15-6.12,6s2.51,5.58,6.12,5.58a14.08,14.08,0,0,0,3.62-.57v-6h-4.51v1.76h2.36v2.91a5.82,5.82,0,0,1-1.47.16,3.68,3.68,0,0,1-3.79-4,3.8,3.8,0,0,1,4.05-4.05,7.28,7.28,0,0,1,2.88.59l.14-1.88Zm32.15-.07a8.45,8.45,0,0,0-2.67-.4c-2,0-3.9.91-3.9,3.41,0,3.7,4.89,2.82,4.89,4.94,0,1-1.13,1.44-2,1.44a5.47,5.47,0,0,1-2.53-.68l-.21,2a10,10,0,0,0,2.87.43c2.25,0,4.19-.92,4.19-3.37,0-3.75-4.9-2.93-4.9-4.87a1.56,1.56,0,0,1,1.76-1.55,5.89,5.89,0,0,1,2.28.48l.2-1.84Zm4.64,11h2.24v-9.41h3.2v-1.76h-8.64v1.76H219v9.41Zm11.56-4.32h-3.27l1.62-4.61h0l1.62,4.61Zm-7.2,4.32h2.32l1-2.56h4.53l1,2.56h2.48l-4.38-11.17h-2.53l-4.35,11.17Zm12.62,0h3.06c3.42,0,6.44-1.15,6.44-5.58s-3-5.59-6.44-5.59H236V391.1Zm2.24-9.41h1.25a3.83,3.83,0,0,1,0,7.65h-1.25v-7.65Zm11.26,9.41h2.24v-9.41h3.2v-1.76H246.3v1.76h3.2v9.41Zm9-5h1.05c1.12,0,2.31.22,2.31,1.68,0,1.3-1.27,1.55-2.31,1.55h-1.05v-3.23Zm0-4.42h.86c1,0,2.16.1,2.16,1.4s-1.17,1.36-2.11,1.36h-.91v-2.76Zm-2.24,9.41h3.9c1.41,0,3.94-.41,3.94-3.23a2.59,2.59,0,0,0-2.56-2.54v0a2.48,2.48,0,0,0,2.22-2.49c0-2.45-2.16-2.87-3.6-2.87h-3.9V391.1ZM272,386.78h-3.26l1.61-4.61h0l1.61,4.61Zm-7.2,4.32h2.32l1-2.56h4.53l1,2.56h2.48l-4.39-11.17h-2.53l-4.35,11.17Zm12.63,0h2.24v-4.89h4.48v4.89h2.24V379.93h-2.24v4.52H279.7v-4.52h-2.24V391.1Zm11.36,0H291v-8.35h0l4.27,8.35H298V379.93h-2.14v8.36h0l-4.25-8.36h-2.75V391.1Zm17.63-4.32h-3.27l1.62-4.61h0l1.62,4.61Zm-7.2,4.32h2.32l1-2.56h4.53l1,2.56h2.48l-4.38-11.17H303.6l-4.35,11.17Zm12.54-4c0,3,1.7,4.22,4.56,4.22s4.56-1.23,4.56-4.22v-7.14h-2.24v6.45c0,1.91-.61,3.15-2.32,3.15s-2.32-1.24-2.32-3.15v-6.45h-2.24v7.14Zm17.76-6.93a8.45,8.45,0,0,0-2.67-.4c-2,0-3.9.91-3.9,3.41,0,3.7,4.89,2.82,4.89,4.94,0,1-1.14,1.44-2,1.44a5.47,5.47,0,0,1-2.53-.68l-.21,2a10,10,0,0,0,2.87.43c2.25,0,4.19-.92,4.19-3.37,0-3.75-4.9-2.93-4.9-4.87a1.56,1.56,0,0,1,1.76-1.55,5.81,5.81,0,0,1,2.27.48l.21-1.84Zm4.85,6h1.06c1.12,0,2.3.22,2.3,1.68,0,1.3-1.26,1.55-2.3,1.55H334.4v-3.23Zm0-4.42h.86c1,0,2.16.1,2.16,1.4s-1.16,1.36-2.11,1.36h-.91v-2.76Zm-2.24,9.41h3.9c1.41,0,3.94-.41,3.94-3.23a2.59,2.59,0,0,0-2.56-2.54v0a2.48,2.48,0,0,0,2.22-2.49c0-2.45-2.16-2.87-3.6-2.87h-3.9V391.1Zm15.74-4.32h-3.26l1.62-4.61h0l1.61,4.61Zm-7.2,4.32H343l1-2.56h4.53l1,2.56H352l-4.39-11.17h-2.53L340.7,391.1Zm12.55-4c0,3,1.69,4.22,4.56,4.22s4.56-1.23,4.56-4.22v-7.14h-2.24v6.45c0,1.91-.61,3.15-2.32,3.15s-2.32-1.24-2.32-3.15v-6.45h-2.24v7.14Zm34.88,4h6.63v-1.76h-4.39v-3.13h4v-1.76h-4v-2.76h4.36v-1.76h-6.6V391.1ZM399,381.69h.73c1.12,0,2.37.12,2.37,1.46s-1.26,1.55-2.37,1.55H399v-3Zm-2.24,9.41H399v-4.64h.72c.94,0,1.23.32,1.55,1.15l1.34,3.49h2.5l-1.79-4.37c-.23-.49-.58-1.1-1.19-1.15v0a2.55,2.55,0,0,0,2.31-2.59c0-3.11-2.87-3-5.27-3h-2.41V391.1Zm16.09-11a8.45,8.45,0,0,0-2.67-.4c-2,0-3.9.91-3.9,3.41,0,3.7,4.89,2.82,4.89,4.94,0,1-1.13,1.44-2,1.44a5.47,5.47,0,0,1-2.53-.68l-.21,2a10,10,0,0,0,2.87.43c2.25,0,4.19-.92,4.19-3.37,0-3.75-4.9-2.93-4.9-4.87a1.56,1.56,0,0,1,1.76-1.55,5.89,5.89,0,0,1,2.28.48l.2-1.84Zm10.64,8.93a6.2,6.2,0,0,1-2.44.46,3.68,3.68,0,0,1-3.8-4A3.73,3.73,0,0,1,421,381.5a4.57,4.57,0,0,1,2.41.59l.16-1.88a7.35,7.35,0,0,0-2.52-.47c-3.8,0-6.13,2.15-6.13,6s2.51,5.58,6.13,5.58a11.51,11.51,0,0,0,2.54-.35l-.1-1.87Zm1.67,2h2.24v-4.89h4.48v4.89h2.24V379.93h-2.24v4.52H427.4v-4.52h-2.24V391.1Zm11.47,0h6.58v-1.76h-4.34v-9.41h-2.24V391.1Zm7.73,0h2.24V379.93h-2.24V391.1Zm4.56,0h6.62v-1.76h-4.38v-3.13h4v-1.76h-4v-2.76h4.35v-1.76h-6.59V391.1Zm15-11a8.45,8.45,0,0,0-2.67-.4c-2,0-3.91.91-3.91,3.41,0,3.7,4.9,2.82,4.9,4.94,0,1-1.13,1.44-2,1.44a5.47,5.47,0,0,1-2.53-.68l-.21,2a10,10,0,0,0,2.87.43c2.25,0,4.19-.92,4.19-3.37,0-3.75-4.9-2.93-4.9-4.87a1.56,1.56,0,0,1,1.76-1.55,5.85,5.85,0,0,1,2.27.48l.21-1.84Zm8.82,0a8.54,8.54,0,0,0-2.67-.4c-2,0-3.91.91-3.91,3.41,0,3.7,4.9,2.82,4.9,4.94,0,1-1.14,1.44-2,1.44a5.4,5.4,0,0,1-2.52-.68l-.21,2a9.89,9.89,0,0,0,2.86.43c2.26,0,4.19-.92,4.19-3.37,0-3.75-4.89-2.93-4.89-4.87a1.56,1.56,0,0,1,1.76-1.55,5.88,5.88,0,0,1,2.27.48l.21-1.84Zm2.52,6.93c0,3,1.7,4.22,4.56,4.22s4.57-1.23,4.57-4.22v-7.14h-2.25v6.45c0,1.91-.6,3.15-2.32,3.15s-2.31-1.24-2.31-3.15v-6.45h-2.25v7.14Zm11.44,4h2.15v-8.35h0l4.27,8.35h2.74V379.93h-2.14v8.36h0l-4.25-8.36h-2.76V391.1Zm20.45-10.89a10.93,10.93,0,0,0-3.28-.47c-3.79,0-6.12,2.15-6.12,6s2.51,5.58,6.12,5.58a14.08,14.08,0,0,0,3.62-.57v-6H503v1.76h2.36v2.91a5.82,5.82,0,0,1-1.47.16,3.68,3.68,0,0,1-3.79-4,3.8,3.8,0,0,1,4-4.05,7.31,7.31,0,0,1,2.88.59l.14-1.88ZM533,387.07c0,3,1.69,4.22,4.56,4.22s4.56-1.23,4.56-4.22v-7.14h-2.24v6.45c0,1.91-.61,3.15-2.32,3.15s-2.32-1.24-2.32-3.15v-6.45H533v7.14Zm11.55,4h2.14v-9.18l0,0,3,9.21h2.15l3-9.21h0v9.21h2.14V379.93h-3.58l-2.66,8.47h0l-2.66-8.47h-3.58V391.1Zm16.85,0h2.89l2-8.93h0l2,8.93h2.88l2.92-11.17H572l-2.1,8.93h0l-2-8.93h-3l-1.9,8.93h0l-2.08-8.93h-2.35l3,11.17Zm14.09,0h6.63v-1.76h-4.39v-3.13h4v-1.76h-4v-2.76h4.35v-1.76h-6.59V391.1Zm8.82,0h6.57v-1.76h-4.33v-9.41h-2.24V391.1Zm8.48,0h2.24v-9.41h3.2v-1.76h-8.64v1.76h3.2v9.41Zm8.38-3.42v-1.76H597v1.76Zm3.62-.61c0,3,1.69,4.22,4.56,4.22s4.56-1.23,4.56-4.22v-7.14h-2.24v6.45c0,1.91-.61,3.15-2.32,3.15s-2.32-1.24-2.32-3.15v-6.45h-2.24v7.14Zm11.44,4h2.14v-8.35h0l4.28,8.35h2.73V379.93h-2.14v8.36h0L619,379.93h-2.75V391.1Zm11.58,0h3.06c3.42,0,6.45-1.15,6.45-5.58s-3-5.59-6.45-5.59h-3.06V391.1Zm2.24-9.41h1.25a3.83,3.83,0,0,1,0,7.65h-1.25v-7.65Zm11.15,9.41h2.24v-4.89h3.78v-1.76h-3.78v-2.76h4v-1.76h-6.21V391.1Zm10-9.41H652c1.12,0,2.37.12,2.37,1.46s-1.27,1.55-2.37,1.55h-.74v-3ZM649,391.1h2.24v-4.64h.72c1,0,1.23.32,1.55,1.15l1.35,3.49h2.49l-1.79-4.37c-.22-.49-.57-1.1-1.18-1.15v0a2.55,2.55,0,0,0,2.3-2.59c0-3.11-2.86-3-5.26-3H649V391.1Zm9.89,0h6.62v-1.76H661.1v-3.13h4v-1.76h-4v-2.76h4.35v-1.76h-6.59V391.1Zm8.62,0h2.24V379.93h-2.24V391.1Zm6.61-9.41h.74c1.12,0,2.37.12,2.37,1.46s-1.27,1.55-2.37,1.55h-.74v-3Zm-2.24,9.41h2.24v-4.64h.72c1,0,1.23.32,1.55,1.15l1.35,3.49h2.49l-1.79-4.37c-.22-.49-.57-1.1-1.18-1.15v0a2.55,2.55,0,0,0,2.3-2.59c0-3.11-2.86-3-5.26-3h-2.42V391.1Zm15.94-4.32h-3.27l1.62-4.61h0l1.62,4.61Zm-7.2,4.32h2.32l1-2.56h4.53l1,2.56h2.48l-4.38-11.17h-2.53l-4.35,11.17Zm12.54-4c0,3,1.7,4.22,4.56,4.22s4.56-1.23,4.56-4.22v-7.14H700v6.45c0,1.91-.61,3.15-2.32,3.15s-2.32-1.24-2.32-3.15v-6.45h-2.24v7.14Zm11.55,4h2.15v-9.18l0,0,3,9.21H712l3-9.21h0v9.21h2.15V379.93h-3.59L711,388.4h0l-2.65-8.47h-3.59V391.1Zm18.5-3.42v-1.76H719v1.76Z" transform="translate(114.75 -308)"/><path class="cls-4" d="M-110.62,369.1h2.24v-5.18h0l4,5.18h2.93l-4.79-5.9,4.59-5.27h-2.75l-4,4.8v-4.8h-2.24V369.1ZM-94,364.78h-3.26l1.61-4.61h0l1.62,4.61Zm-7.2,4.32h2.32l1-2.56h4.52l1,2.56h2.48l-4.38-11.17h-2.53l-4.35,11.17Zm12.51,0h2.15v-8.35h0l4.27,8.35h2.74V357.93h-2.15v8.36h0l-4.26-8.36h-2.75V369.1ZM-71,364.78H-74.3l1.62-4.61h0l1.61,4.61Zm-7.2,4.32h2.32l1-2.56h4.53l1,2.56H-67l-4.39-11.17h-2.52l-4.36,11.17Zm12.63,0H-59v-1.76h-4.33v-9.41h-2.24V369.1Zm9.15,0h2.75l3.76-11.17h-2.22L-55,366.7h0l-2.86-8.77h-2.4l3.84,11.17Zm7.89,0h6.62v-1.76h-4.38v-3.13h4v-1.76h-4v-2.76H-42v-1.76h-6.59V369.1Zm10.86-9.41H-37c1.12,0,2.37.12,2.37,1.46s-1.27,1.55-2.37,1.55h-.74v-3Zm-2.24,9.41h2.24v-4.64H-37c1,0,1.23.32,1.55,1.15l1.35,3.49h2.49l-1.79-4.37c-.22-.49-.57-1.1-1.18-1.15v0a2.55,2.55,0,0,0,2.3-2.59c0-3.11-2.86-3-5.26-3h-2.42V369.1Zm9.89,0h2.14v-9.18l0,0,3,9.21h2.15l3-9.21h0v9.21h2.14V357.93h-3.58l-2.66,8.47h0l-2.66-8.47h-3.58V369.1Zm15,0h6.63v-1.76H-12.8v-3.13h4v-1.76h-4v-2.76h4.35v-1.76H-15V369.1Zm15-11a8.54,8.54,0,0,0-2.67-.4c-2,0-3.91.91-3.91,3.41,0,3.7,4.9,2.82,4.9,4.94,0,1-1.14,1.44-2,1.44a5.4,5.4,0,0,1-2.52-.68l-.21,2a9.89,9.89,0,0,0,2.86.43c2.26,0,4.19-.92,4.19-3.37,0-3.75-4.89-2.93-4.89-4.87a1.56,1.56,0,0,1,1.76-1.55A5.85,5.85,0,0,1-.22,360L0,358.14Zm8.81,0a8.45,8.45,0,0,0-2.67-.4c-2,0-3.9.91-3.9,3.41,0,3.7,4.89,2.82,4.89,4.94,0,1-1.13,1.44-2,1.44a5.47,5.47,0,0,1-2.53-.68l-.21,2a10,10,0,0,0,2.87.43c2.25,0,4.19-.92,4.19-3.37,0-3.75-4.9-2.93-4.9-4.87a1.56,1.56,0,0,1,1.76-1.55A5.89,5.89,0,0,1,8.6,360l.2-1.84Zm2.53,6.93c0,3,1.7,4.22,4.56,4.22s4.56-1.23,4.56-4.22v-7.14H18.21v6.45c0,1.91-.61,3.15-2.32,3.15s-2.32-1.24-2.32-3.15v-6.45H11.33v7.14Zm11.44,4h2.15v-8.35h0l4.27,8.35H32V357.93H29.81v8.36h0l-4.26-8.36H22.77V369.1Zm20.45-10.89a10.93,10.93,0,0,0-3.28-.47c-3.79,0-6.13,2.15-6.13,6s2.51,5.58,6.13,5.58a14,14,0,0,0,3.61-.57v-6H39v1.76h2.37v2.91a5.82,5.82,0,0,1-1.47.16,3.67,3.67,0,0,1-3.79-4,3.8,3.8,0,0,1,4-4.05,7.28,7.28,0,0,1,2.88.59l.15-1.88Zm10.69,1.48h.74c1.12,0,2.37.12,2.37,1.46s-1.27,1.55-2.37,1.55h-.74v-3Zm-2.24,9.41h2.24v-4.64h.72c.95,0,1.24.32,1.55,1.15l1.35,3.49H60l-1.79-4.37c-.22-.49-.57-1.1-1.18-1.15v0a2.55,2.55,0,0,0,2.3-2.59c0-3.11-2.86-3-5.26-3H51.67V369.1Zm9.89,0h6.63v-1.76H63.8v-3.13h4v-1.76h-4v-2.76h4.35v-1.76H61.56V369.1Zm14.87-4.32H73.16l1.62-4.61h0l1.62,4.61Zm-7.2,4.32h2.32l1-2.56h4.53l1,2.56h2.48l-4.38-11.17H73.58L69.23,369.1Zm12.62,0h6.57v-1.76H84.09v-9.41H81.85V369.1Zm7.73,0h2.24V357.93H89.58V369.1Zm10.76-11a8.45,8.45,0,0,0-2.67-.4c-2,0-3.9.91-3.9,3.41,0,3.7,4.89,2.82,4.89,4.94,0,1-1.13,1.44-2,1.44a5.47,5.47,0,0,1-2.53-.68l-.2,2a9.84,9.84,0,0,0,2.86.43c2.25,0,4.19-.92,4.19-3.37,0-3.75-4.89-2.93-4.89-4.87a1.56,1.56,0,0,1,1.76-1.55,5.88,5.88,0,0,1,2.27.48l.2-1.84Zm2.42,11H105V357.93h-2.24V369.1Zm4.56,0h6.62v-1.76h-4.38v-3.13h4v-1.76h-4v-2.76h4.35v-1.76h-6.59V369.1Zm10.86-9.41h.74c1.12,0,2.37.12,2.37,1.46s-1.27,1.55-2.37,1.55h-.74v-3Zm-2.24,9.41h2.24v-4.64h.72c.95,0,1.24.32,1.56,1.15l1.34,3.49h2.5l-1.8-4.37c-.22-.49-.57-1.1-1.18-1.15v0a2.55,2.55,0,0,0,2.3-2.59c0-3.11-2.86-3-5.26-3h-2.42V369.1Zm9.81-4c0,3,1.7,4.22,4.56,4.22s4.56-1.23,4.56-4.22v-7.14h-2.24v6.45c0,1.91-.61,3.15-2.32,3.15s-2.32-1.24-2.32-3.15v-6.45h-2.24v7.14Zm11.44,4h2.15v-8.35h0l4.27,8.35h2.74V357.93h-2.15v8.36h0l-4.26-8.36h-2.75V369.1Zm20.45-10.89a10.93,10.93,0,0,0-3.28-.47c-3.79,0-6.13,2.15-6.13,6s2.51,5.58,6.13,5.58a14.15,14.15,0,0,0,3.62-.57v-6h-4.52v1.76h2.37v2.91a5.82,5.82,0,0,1-1.47.16,3.68,3.68,0,0,1-3.79-4,3.8,3.8,0,0,1,4.05-4.05,7.35,7.35,0,0,1,2.88.59l.14-1.88Zm8.45,10.89h2.24V357.93h-2.24V369.1Zm4.45,0h2.15v-8.35h0L177,369.1h2.74V357.93h-2.15v8.36h0l-4.26-8.36h-2.75V369.1ZM191,358.21a10.93,10.93,0,0,0-3.28-.47c-3.79,0-6.13,2.15-6.13,6s2.51,5.58,6.13,5.58a14.15,14.15,0,0,0,3.62-.57v-6h-4.52v1.76h2.37v2.91a5.82,5.82,0,0,1-1.47.16,3.68,3.68,0,0,1-3.79-4A3.8,3.8,0,0,1,188,359.5a7.35,7.35,0,0,1,2.88.59l.14-1.88Zm2.61,10.89h6.62v-1.76h-4.38v-3.13h4v-1.76h-4v-2.76h4.35v-1.76H193.6V369.1Zm8.7,0h2.15v-8.35h0l4.27,8.35h2.73V357.93h-2.14v8.36h0l-4.26-8.36H202.3V369.1Zm11.39,0h2.24V357.93h-2.24V369.1Zm4.56,0h6.63v-1.76h-4.39v-3.13h4v-1.76h-4v-2.76h4.36v-1.76h-6.6V369.1Zm8.74-4c0,3,1.69,4.22,4.56,4.22s4.56-1.23,4.56-4.22v-7.14h-2.24v6.45c0,1.91-.61,3.15-2.32,3.15s-2.32-1.24-2.32-3.15v-6.45H227v7.14Zm13.6-5.38h.74c1.12,0,2.36.12,2.36,1.46s-1.26,1.55-2.36,1.55h-.74v-3Zm-2.24,9.41h2.24v-4.64h.72c.94,0,1.23.32,1.55,1.15l1.34,3.49h2.5l-1.79-4.37c-.23-.49-.58-1.1-1.18-1.15v0A2.55,2.55,0,0,0,246,361c0-3.11-2.86-3-5.26-3h-2.42V369.1Zm12.13-5h1.05c1.12,0,2.31.22,2.31,1.68,0,1.3-1.27,1.55-2.31,1.55h-1.05v-3.23Zm0-4.42h.86c1,0,2.16.1,2.16,1.4s-1.17,1.36-2.11,1.36h-.91v-2.76Zm-2.24,9.41h3.9c1.41,0,3.94-.41,3.94-3.23a2.59,2.59,0,0,0-2.56-2.54v0a2.48,2.48,0,0,0,2.22-2.49c0-2.45-2.16-2.87-3.6-2.87h-3.9V369.1ZM264,364.78h-3.26l1.61-4.61h0l1.61,4.61Zm-7.2,4.32h2.32l1-2.56h4.53l1,2.56h2.48l-4.39-11.17h-2.53l-4.35,11.17Zm12.54-4c0,3,1.7,4.22,4.56,4.22s4.56-1.23,4.56-4.22v-7.14H276.2v6.45c0,1.91-.6,3.15-2.32,3.15s-2.32-1.24-2.32-3.15v-6.45h-2.24v7.14Zm13.38,4h2.9l2-8.93h0l2,8.93h2.88l2.91-11.17h-2.18l-2.09,8.93h0l-2-8.93h-3l-1.91,8.93h0l-2.08-8.93h-2.35l3,11.17Zm14.1,0h6.62v-1.76H299v-3.13h4v-1.76h-4v-2.76h4.35v-1.76H296.8V369.1Zm10.86-9.41h.74c1.12,0,2.36.12,2.36,1.46s-1.26,1.55-2.36,1.55h-.74v-3Zm-2.24,9.41h2.24v-4.64h.72c.94,0,1.23.32,1.55,1.15l1.35,3.49h2.49L312,364.73c-.22-.49-.58-1.1-1.18-1.15v0a2.55,2.55,0,0,0,2.3-2.59c0-3.11-2.86-3-5.26-3h-2.42V369.1Zm9.89,0h2.24v-5.18h0l4,5.18h2.92l-4.78-5.9,4.59-5.27h-2.75l-4,4.8v-4.8h-2.24V369.1Zm18.87-5h1.05c1.12,0,2.31.22,2.31,1.68,0,1.3-1.27,1.55-2.31,1.55h-1.05v-3.23Zm0-4.42H335c1,0,2.16.1,2.16,1.4s-1.17,1.36-2.11,1.36h-.91v-2.76Zm-2.24,9.41h3.9c1.41,0,3.94-.41,3.94-3.23a2.59,2.59,0,0,0-2.56-2.54v0a2.48,2.48,0,0,0,2.22-2.49c0-2.45-2.16-2.87-3.6-2.87h-3.9V369.1Zm15.74-4.32h-3.26l1.61-4.61h0l1.61,4.61Zm-7.2,4.32h2.32l1-2.56h4.53l1,2.56h2.48l-4.39-11.17h-2.53l-4.35,11.17Zm12.55-4c0,3,1.69,4.22,4.56,4.22s4.56-1.23,4.56-4.22v-7.14h-2.24v6.45c0,1.91-.61,3.15-2.32,3.15s-2.32-1.24-2.32-3.15v-6.45H353v7.14Zm17.6-.29h-3.27l1.62-4.61h0l1.62,4.61Zm-7.2,4.32h2.32l1-2.56h4.53l1,2.56h2.48l-4.39-11.17h-2.52l-4.35,11.17Zm14.86-5h1.06c1.12,0,2.3.22,2.3,1.68,0,1.3-1.26,1.55-2.3,1.55h-1.06v-3.23Zm0-4.42h.86c1,0,2.16.1,2.16,1.4s-1.17,1.36-2.11,1.36h-.91v-2.76Zm-2.24,9.41H380c1.41,0,3.94-.41,3.94-3.23a2.59,2.59,0,0,0-2.56-2.54v0a2.48,2.48,0,0,0,2.22-2.49c0-2.45-2.16-2.87-3.6-2.87h-3.9V369.1Zm9.7,0h6.57v-1.76H388v-9.41h-2.24V369.1Zm14-4.32h-3.26l1.62-4.61h0l1.61,4.61Zm-7.2,4.32h2.32l1-2.56h4.53l1,2.56h2.48l-4.39-11.17h-2.53l-4.35,11.17Zm12.55-4c0,3,1.69,4.22,4.56,4.22s4.56-1.23,4.56-4.22v-7.14h-2.24v6.45c0,1.91-.61,3.15-2.32,3.15s-2.32-1.24-2.32-3.15v-6.45h-2.24v7.14Zm11.55,4h2.24v-4.89h3.78v-1.76h-3.78v-2.76h4v-1.76h-6.21V369.1Zm10-9.41h.78c1.15,0,2.13.45,2.13,1.75s-1,1.66-2.13,1.66h-.78v-3.41Zm-2.24,9.41h2.24v-4.24h.94c2.4,0,4.31-.94,4.31-3.55s-2.23-3.38-4.66-3.38h-2.83V369.1Zm9,0h6.58v-1.76h-4.33v-9.41h-2.25V369.1Zm14-4.32h-3.26l1.61-4.61h0l1.61,4.61Zm-7.2,4.32h2.32l1-2.56h4.53l1,2.56h2.48L447,357.93h-2.52l-4.36,11.17Zm12.51,0h2.15v-8.35h0l4.27,8.35h2.74V357.93h-2.15v8.36h0l-4.25-8.36h-2.76V369.1Zm19.87-5h1.05c1.12,0,2.31.22,2.31,1.68,0,1.3-1.27,1.55-2.31,1.55h-1.05v-3.23Zm0-4.42h.86c1,0,2.16.1,2.16,1.4s-1.17,1.36-2.11,1.36h-.91v-2.76Zm-2.24,9.41h3.9c1.41,0,3.94-.41,3.94-3.23a2.59,2.59,0,0,0-2.56-2.54v0a2.49,2.49,0,0,0,2.22-2.49c0-2.45-2.16-2.87-3.6-2.87h-3.9V369.1Zm9.69,0h6.63v-1.76h-4.39v-3.13h4v-1.76h-4v-2.76h4.35v-1.76h-6.59V369.1Zm10.87-9.41h.73c1.12,0,2.37.12,2.37,1.46s-1.26,1.55-2.37,1.55h-.73v-3Zm-2.24,9.41h2.24v-4.64h.72c.94,0,1.23.32,1.55,1.15l1.34,3.49h2.5l-1.79-4.37c-.23-.49-.58-1.1-1.19-1.15v0a2.55,2.55,0,0,0,2.31-2.59c0-3.11-2.87-3-5.27-3h-2.41V369.1Zm15.93-4.32h-3.26l1.61-4.61h0l1.61,4.61Zm-7.2,4.32h2.32l1-2.56h4.53l1,2.56h2.48l-4.39-11.17h-2.53L497.3,369.1Zm13.38,0h2.24v-9.41h3.2v-1.76h-8.64v1.76h3.2v9.41Zm6.7-4c0,3,1.7,4.22,4.56,4.22s4.56-1.23,4.56-4.22v-7.14h-2.24v6.45c0,1.91-.61,3.15-2.32,3.15s-2.32-1.24-2.32-3.15v-6.45h-2.24v7.14Zm11.44,4H531v-8.35h0l4.27,8.35H538V357.93h-2.15v8.36h0l-4.26-8.36h-2.75V369.1Zm20.45-10.89a10.93,10.93,0,0,0-3.28-.47c-3.79,0-6.13,2.15-6.13,6s2.51,5.58,6.13,5.58a14.15,14.15,0,0,0,3.62-.57v-6h-4.52v1.76h2.37v2.91a5.82,5.82,0,0,1-1.47.16,3.68,3.68,0,0,1-3.79-4,3.8,3.8,0,0,1,4-4.05,7.35,7.35,0,0,1,2.88.59l.14-1.88Zm8.65,10.89h2.24v-4.89h4.48v4.89h2.24V357.93h-2.24v4.52h-4.48v-4.52h-2.24V369.1Zm10.92-5.61c0,3.42,1.89,5.8,5.48,5.8s5.47-2.43,5.47-5.8-2-5.75-5.47-5.75-5.48,2.32-5.48,5.75Zm2.34,0c0-2,.91-4,3.14-4s3.13,2,3.13,4-.85,4-3.13,4-3.14-2-3.14-4Zm18.61,3.58a6.29,6.29,0,0,1-2.45.46,3.68,3.68,0,0,1-3.79-4,3.73,3.73,0,0,1,3.74-4.05,4.63,4.63,0,0,1,2.42.59l.16-1.88a7.45,7.45,0,0,0-2.53-.47c-3.79,0-6.13,2.15-6.13,6s2.51,5.58,6.13,5.58a11.35,11.35,0,0,0,2.54-.35l-.09-1.87Zm1.66,2h2.24v-4.89h4.48v4.89h2.24V357.93h-2.24v4.52h-4.48v-4.52h-2.24V369.1Zm13.3,0h2.89l2-8.93h0l2,8.93h2.88l2.92-11.17h-2.18l-2.09,8.93h0l-2-8.93h-3l-1.91,8.93h0l-2.08-8.93h-2.35l3,11.17Zm19.55-4.32H621l1.62-4.61h0l1.62,4.61Zm-7.2,4.32h2.32l1-2.56h4.52l1,2.56h2.48L624,357.93h-2.53L617.1,369.1Zm18.83-11a8.49,8.49,0,0,0-2.67-.4c-2,0-3.91.91-3.91,3.41,0,3.7,4.9,2.82,4.9,4.94,0,1-1.14,1.44-2,1.44a5.47,5.47,0,0,1-2.53-.68l-.21,2a10,10,0,0,0,2.87.43c2.25,0,4.19-.92,4.19-3.37,0-3.75-4.9-2.93-4.9-4.87a1.56,1.56,0,0,1,1.76-1.55,5.85,5.85,0,0,1,2.27.48l.21-1.84Zm8.82,0a8.51,8.51,0,0,0-2.68-.4c-2,0-3.9.91-3.9,3.41,0,3.7,4.9,2.82,4.9,4.94,0,1-1.14,1.44-2,1.44a5.47,5.47,0,0,1-2.53-.68l-.2,2a9.84,9.84,0,0,0,2.86.43c2.26,0,4.19-.92,4.19-3.37,0-3.75-4.89-2.93-4.89-4.87a1.56,1.56,0,0,1,1.76-1.55,5.85,5.85,0,0,1,2.27.48l.21-1.84Zm2.6,11H654v-1.76h-4.39v-3.13h4v-1.76h-4v-2.76H654v-1.76h-6.6V369.1Zm10.87-9.41H659c1.12,0,2.36.12,2.36,1.46s-1.26,1.55-2.36,1.55h-.74v-3ZM656,369.1h2.24v-4.64h.72c.94,0,1.23.32,1.55,1.15l1.35,3.49h2.49l-1.79-4.37c-.22-.49-.58-1.1-1.19-1.15v0a2.55,2.55,0,0,0,2.31-2.59c0-3.11-2.87-3-5.26-3H656V369.1Zm16.1-11a8.55,8.55,0,0,0-2.68-.4c-2,0-3.9.91-3.9,3.41,0,3.7,4.9,2.82,4.9,4.94,0,1-1.14,1.44-2,1.44a5.47,5.47,0,0,1-2.53-.68l-.21,2a10,10,0,0,0,2.87.43c2.26,0,4.19-.92,4.19-3.37,0-3.75-4.89-2.93-4.89-4.87a1.55,1.55,0,0,1,1.75-1.55,5.89,5.89,0,0,1,2.28.48l.21-1.84Zm10.64,8.93a6.29,6.29,0,0,1-2.45.46,3.68,3.68,0,0,1-3.8-4,3.73,3.73,0,0,1,3.75-4.05,4.63,4.63,0,0,1,2.42.59l.16-1.88a7.45,7.45,0,0,0-2.53-.47c-3.8,0-6.13,2.15-6.13,6s2.51,5.58,6.13,5.58a11.51,11.51,0,0,0,2.54-.35l-.09-1.87Zm1.66,2h2.24v-4.89h4.48v4.89h2.24V357.93H691.1v4.52h-4.48v-4.52h-2.24V369.1Zm11.39-4c0,3,1.7,4.22,4.56,4.22s4.56-1.23,4.56-4.22v-7.14h-2.24v6.45c0,1.91-.61,3.15-2.32,3.15s-2.32-1.24-2.32-3.15v-6.45h-2.24v7.14Zm13.58,4h2.24v-9.41h3.2v-1.76h-8.64v1.76h3.2v9.41Zm6.07,0h7.74v-1.76h-5.41l5.3-7.58v-1.83h-7.42v1.76h5l-5.25,7.59v1.82Z" transform="translate(114.75 -308)"/><path class="cls-4" d="M-111.16,341.49c0,3.42,1.88,5.8,5.47,5.8s5.47-2.43,5.47-5.8-2-5.75-5.47-5.75-5.47,2.32-5.47,5.75Zm2.33,0c0-2,.91-4,3.14-4s3.13,2,3.13,4-.84,4-3.13,4-3.14-2-3.14-4Zm12.63-3.8h.73c1.12,0,2.37.12,2.37,1.46s-1.26,1.55-2.37,1.55h-.73v-3Zm-2.24,9.41h2.24v-4.64h.72c.94,0,1.23.32,1.55,1.15l1.34,3.49h2.5l-1.79-4.37c-.23-.49-.58-1.1-1.19-1.15v0A2.55,2.55,0,0,0-90.76,339c0-3.11-2.87-3-5.27-3h-2.41V347.1Zm11.63,0h2.24v-9.41h3.2v-1.76H-90v1.76h3.2v9.41Zm13-11a8.49,8.49,0,0,0-2.67-.4c-2,0-3.91.91-3.91,3.41,0,3.7,4.9,2.82,4.9,4.94,0,1-1.14,1.44-2,1.44a5.47,5.47,0,0,1-2.53-.68l-.21,2a9.89,9.89,0,0,0,2.86.43c2.26,0,4.2-.92,4.2-3.37,0-3.75-4.9-2.93-4.9-4.87a1.56,1.56,0,0,1,1.76-1.55A5.85,5.85,0,0,1-74,338l.21-1.84Zm2.53,6.93c0,3,1.69,4.22,4.56,4.22s4.56-1.23,4.56-4.22v-7.14h-2.24v6.45c0,1.91-.61,3.15-2.32,3.15S-69,344.29-69,342.38v-6.45h-2.24v7.14Zm11.55,4h2.14v-9.18l0,0,3,9.21h2.15l3-9.21h0v9.21h2.14V335.93h-3.58l-2.66,8.47h0l-2.66-8.47h-3.58V347.1Zm23.89-10.89a11,11,0,0,0-3.28-.47c-3.79,0-6.13,2.15-6.13,6s2.51,5.58,6.13,5.58a14,14,0,0,0,3.61-.57v-6H-40v1.76h2.37v2.91a5.82,5.82,0,0,1-1.47.16,3.67,3.67,0,0,1-3.79-4,3.8,3.8,0,0,1,4-4.05,7.28,7.28,0,0,1,2.88.59l.15-1.88Zm2.61,10.89h6.62v-1.76H-31v-3.13h4v-1.76h-4v-2.76h4.35v-1.76h-6.59V347.1Zm8.81,0h2.24v-4.89h4.48v4.89h2.24V335.93h-2.24v4.52h-4.48v-4.52h-2.24V347.1Zm11.39-4c0,3,1.7,4.22,4.56,4.22s4.56-1.23,4.56-4.22v-7.14H-6.16v6.45c0,1.91-.6,3.15-2.32,3.15s-2.32-1.24-2.32-3.15v-6.45H-13v7.14Zm11.44,4H.55v-8.35h0l4.27,8.35H7.59V335.93H5.44v8.36h0l-4.26-8.36H-1.6V347.1Zm20.45-10.89a10.93,10.93,0,0,0-3.28-.47c-3.79,0-6.13,2.15-6.13,6s2.51,5.58,6.13,5.58a14.15,14.15,0,0,0,3.62-.57v-6H14.68v1.76H17v2.91a5.82,5.82,0,0,1-1.47.16,3.68,3.68,0,0,1-3.79-4,3.8,3.8,0,0,1,4.05-4.05,7.35,7.35,0,0,1,2.88.59l.14-1.88Zm2.61,10.89h6.62v-1.76H23.7v-3.13h4v-1.76h-4v-2.76h4.35v-1.76H21.46V347.1Zm8.7,0h2.15v-8.35h0l4.27,8.35h2.74V335.93H37.2v8.36h0l-4.25-8.36H30.16V347.1Zm42.44,0h6.58v-1.76H74.84v-9.41H72.6V347.1Zm14-4.32H83.31l1.61-4.61h0l1.61,4.61Zm-7.2,4.32h2.32l1-2.56H87.2l1,2.56h2.48l-4.39-11.17H83.72L79.37,347.1Zm12.51,0H94v-8.35h0l4.27,8.35h2.74V335.93H98.92v8.36h0l-4.25-8.36H91.88V347.1Zm11.59,0h3c3.43,0,6.45-1.15,6.45-5.58s-3-5.59-6.45-5.59h-3V347.1Zm2.24-9.41H107a3.83,3.83,0,0,1,0,7.65h-1.25v-7.65Zm15.44-1.55a8.49,8.49,0,0,0-2.67-.4c-2,0-3.91.91-3.91,3.41,0,3.7,4.9,2.82,4.9,4.94,0,1-1.14,1.44-2,1.44a5.4,5.4,0,0,1-2.52-.68l-.21,2a9.89,9.89,0,0,0,2.86.43c2.26,0,4.19-.92,4.19-3.37,0-3.75-4.89-2.93-4.89-4.87a1.56,1.56,0,0,1,1.76-1.55,5.85,5.85,0,0,1,2.27.48l.21-1.84Zm10.64,8.93a6.29,6.29,0,0,1-2.45.46,3.68,3.68,0,0,1-3.79-4,3.73,3.73,0,0,1,3.74-4.05,4.63,4.63,0,0,1,2.42.59l.16-1.88a7.4,7.4,0,0,0-2.53-.47c-3.79,0-6.13,2.15-6.13,6s2.51,5.58,6.13,5.58a11.35,11.35,0,0,0,2.54-.35l-.09-1.87Zm1.66,2h2.24v-4.89h4.48v4.89h2.24V335.93h-2.24v4.52h-4.48v-4.52h-2.24V347.1ZM151,342.78h-3.26l1.61-4.61h0l1.61,4.61Zm-7.2,4.32h2.32l1-2.56h4.53l1,2.56H155l-4.39-11.17h-2.53l-4.35,11.17Zm12.62,0h2.25v-4.89h3.77v-1.76h-3.77v-2.76h4v-1.76h-6.21V347.1Zm10,0h2.24v-9.41h3.2v-1.76h-8.64v1.76h3.2v9.41Zm13-11a8.49,8.49,0,0,0-2.67-.4c-2,0-3.91.91-3.91,3.41,0,3.7,4.9,2.82,4.9,4.94,0,1-1.14,1.44-2,1.44a5.46,5.46,0,0,1-2.52-.68l-.21,2a9.89,9.89,0,0,0,2.86.43c2.26,0,4.19-.92,4.19-3.37,0-3.75-4.89-2.93-4.89-4.87a1.56,1.56,0,0,1,1.76-1.55,5.85,5.85,0,0,1,2.27.48l.21-1.84Zm4.65,1.55h.79c1.15,0,2.13.45,2.13,1.75s-1,1.66-2.13,1.66H184v-3.41Zm-2.23,9.41H184v-4.24h.95c2.4,0,4.3-.94,4.3-3.55s-2.22-3.38-4.65-3.38h-2.83V347.1Zm9,0H193v-4.89h3.78v-1.76H193v-2.76h4v-1.76h-6.21V347.1Zm7.92,0h6.58v-1.76h-4.34v-9.41h-2.24V347.1Zm7.92,0h6.63v-1.76h-4.39v-3.13h4v-1.76h-4v-2.76h4.36v-1.76h-6.6V347.1Zm17.68-10.89a10.93,10.93,0,0,0-3.28-.47c-3.79,0-6.12,2.15-6.12,6s2.51,5.58,6.12,5.58a14.15,14.15,0,0,0,3.62-.57v-6h-4.51v1.76h2.37v2.91a6,6,0,0,1-1.48.16,3.68,3.68,0,0,1-3.79-4,3.8,3.8,0,0,1,4-4.05,7.28,7.28,0,0,1,2.88.59l.14-1.88Zm2.61,10.89h6.63v-1.76h-4.39v-3.13h4v-1.76h-4v-2.76h4.35v-1.76h-6.59V347.1Zm10.87-9.41h.73c1.12,0,2.37.12,2.37,1.46s-1.26,1.55-2.37,1.55h-.73v-3Zm-2.24,9.41h2.24v-4.64h.72c.94,0,1.23.32,1.55,1.15l1.34,3.49h2.5l-1.79-4.37c-.23-.49-.58-1.1-1.19-1.15v0A2.55,2.55,0,0,0,243.2,339c0-3.11-2.87-3-5.27-3h-2.41V347.1Zm9.69,0h2.24V335.93h-2.24V347.1Zm10.77-11a8.49,8.49,0,0,0-2.67-.4c-2,0-3.91.91-3.91,3.41,0,3.7,4.9,2.82,4.9,4.94,0,1-1.14,1.44-2,1.44a5.4,5.4,0,0,1-2.53-.68l-.21,2a9.89,9.89,0,0,0,2.86.43c2.26,0,4.2-.92,4.2-3.37,0-3.75-4.9-2.93-4.9-4.87a1.56,1.56,0,0,1,1.76-1.55,5.85,5.85,0,0,1,2.27.48l.21-1.84Zm10.64,8.93a6.29,6.29,0,0,1-2.45.46,3.68,3.68,0,0,1-3.79-4,3.73,3.73,0,0,1,3.74-4.05,4.63,4.63,0,0,1,2.42.59l.16-1.88a7.4,7.4,0,0,0-2.53-.47c-3.79,0-6.13,2.15-6.13,6s2.51,5.58,6.13,5.58a11.52,11.52,0,0,0,2.55-.35l-.1-1.87Zm1.66,2h2.24v-4.89H275v4.89h2.24V335.93H275v4.52h-4.48v-4.52h-2.24V347.1Zm11.47,0h6.63v-1.76H282v-3.13h4v-1.76h-4v-2.76h4.36v-1.76h-6.6V347.1Zm10.87-9.41h.73c1.12,0,2.37.12,2.37,1.46s-1.26,1.55-2.37,1.55h-.73v-3Zm-2.24,9.41h2.24v-4.64h.72c.94,0,1.23.32,1.55,1.15l1.34,3.49h2.5l-1.79-4.37c-.23-.49-.58-1.1-1.19-1.15v0a2.55,2.55,0,0,0,2.31-2.59c0-3.11-2.87-3-5.27-3h-2.41V347.1Zm43-5h1.06c1.12,0,2.3.22,2.3,1.68,0,1.3-1.26,1.55-2.3,1.55h-1.06v-3.23Zm0-4.42h.87c1,0,2.16.1,2.16,1.4s-1.17,1.36-2.11,1.36h-.92v-2.76Zm-2.24,9.41H333c1.41,0,3.93-.41,3.93-3.23a2.59,2.59,0,0,0-2.56-2.54v0a2.49,2.49,0,0,0,2.23-2.49c0-2.45-2.16-2.87-3.6-2.87h-3.91V347.1Zm9.7,0h6.62v-1.76h-4.38v-3.13h4v-1.76h-4v-2.76h4.35v-1.76h-6.59V347.1Zm17.68-10.89a10.93,10.93,0,0,0-3.28-.47c-3.79,0-6.13,2.15-6.13,6s2.51,5.58,6.13,5.58a14.15,14.15,0,0,0,3.62-.57v-6h-4.52v1.76h2.37v2.91a5.82,5.82,0,0,1-1.47.16,3.68,3.68,0,0,1-3.79-4,3.8,3.8,0,0,1,4.05-4.05,7.35,7.35,0,0,1,2.88.59l.14-1.88Zm2.61,10.89h6.57v-1.76h-4.33v-9.41h-2.24V347.1Zm7.92,0h6.62v-1.76h-4.38v-3.13h4v-1.76h-4v-2.76h4.35v-1.76H367V347.1Zm8.62,0h2.24V335.93h-2.24V347.1Zm6.59,0h2.24v-9.41h3.2v-1.76H379v1.76h3.2v9.41Zm8.84-9.41h.78c1.15,0,2.13.45,2.13,1.75s-1,1.66-2.13,1.66h-.78v-3.41Zm-2.24,9.41h2.24v-4.24H392c2.4,0,4.3-.94,4.3-3.55s-2.22-3.38-4.65-3.38h-2.83V347.1Zm9,0h6.58v-1.76h-4.34v-9.41h-2.24V347.1Zm14-4.32h-3.26l1.61-4.61h0l1.61,4.61Zm-7.2,4.32h2.32l1-2.56h4.52l1,2.56h2.48l-4.39-11.17H409l-4.35,11.17Zm12.51,0h2.15v-8.35h0l4.27,8.35h2.74V335.93h-2.15v8.36h0l-4.25-8.36h-2.76V347.1Zm42.36-4c0,3,1.7,4.22,4.56,4.22s4.56-1.23,4.56-4.22v-7.14h-2.24v6.45c0,1.91-.6,3.15-2.32,3.15s-2.32-1.24-2.32-3.15v-6.45h-2.24v7.14Zm11.56,4h2.14v-9.18l0,0,3,9.21h2.14l3-9.21h0v9.21h2.15V335.93H480l-2.65,8.47h0l-2.66-8.47H471V347.1Zm16.84,0h2.9l2-8.93h0l2,8.93h2.88l2.91-11.17h-2.17l-2.1,8.93h0l-2-8.93h-3l-1.9,8.93h0l-2.08-8.93h-2.36l3,11.17Zm14.1,0h6.62v-1.76h-4.38v-3.13h4v-1.76h-4v-2.76h4.35v-1.76H502V347.1Zm8.82,0h6.57v-1.76H513v-9.41H510.8V347.1Zm8.48,0h2.24v-9.41h3.2v-1.76h-8.64v1.76h3.2v9.41Zm9.48,0h2.76l3.76-11.17h-2.23l-2.83,8.77h0l-2.87-8.77h-2.4l3.84,11.17Zm7.89,0h6.63v-1.76h-4.39v-3.13h4v-1.76h-4v-2.76h4.35v-1.76h-6.59V347.1Zm10.87-9.41h.73c1.12,0,2.37.12,2.37,1.46s-1.26,1.55-2.37,1.55h-.73v-3Zm-2.24,9.41h2.24v-4.64h.72c.94,0,1.23.32,1.55,1.15l1.34,3.49h2.5l-1.79-4.37c-.23-.49-.58-1.1-1.19-1.15v0A2.55,2.55,0,0,0,553,339c0-3.11-2.87-3-5.27-3h-2.41V347.1Zm11.63,0h2.24v-9.41h3.2v-1.76h-8.64v1.76h3.2v9.41Zm8.83-9.41h.74c1.12,0,2.36.12,2.36,1.46s-1.26,1.55-2.36,1.55h-.74v-3Zm-2.24,9.41h2.24v-4.64h.72c.94,0,1.23.32,1.55,1.15l1.35,3.49h2.49l-1.79-4.37c-.22-.49-.58-1.1-1.18-1.15v0a2.55,2.55,0,0,0,2.3-2.59c0-3.11-2.86-3-5.26-3H563.5V347.1Zm15.94-4.32h-3.27l1.62-4.61h0l1.62,4.61Zm-7.2,4.32h2.32l1-2.56h4.53l1,2.56h2.48l-4.38-11.17h-2.53l-4.35,11.17ZM578.59,333v1.86h1.85V333Zm-1.44,1.86V333h-1.86v1.86Zm16.57,1.38a10.93,10.93,0,0,0-3.28-.47c-3.79,0-6.12,2.15-6.12,6s2.51,5.58,6.12,5.58a14.08,14.08,0,0,0,3.62-.57v-6h-4.51v1.76h2.37v2.91a6,6,0,0,1-1.48.16,3.68,3.68,0,0,1-3.79-4,3.8,3.8,0,0,1,4.05-4.05,7.31,7.31,0,0,1,2.88.59l.14-1.88Zm2.61,10.89h6.58v-1.76h-4.34v-9.41h-2.24V347.1Zm7.73,0h2.24V335.93h-2.24V347.1Zm12.59-2a6.29,6.29,0,0,1-2.45.46,3.68,3.68,0,0,1-3.79-4,3.73,3.73,0,0,1,3.75-4.05,4.61,4.61,0,0,1,2.41.59l.16-1.88a7.36,7.36,0,0,0-2.53-.47c-3.79,0-6.12,2.15-6.12,6s2.51,5.58,6.12,5.58a11.52,11.52,0,0,0,2.55-.35l-.1-1.87Zm1.67,2h2.23v-4.89H625v4.89h2.24V335.93H625v4.52h-4.49v-4.52h-2.23V347.1Zm11.47,0H632v-5.18h0l4,5.18H639l-4.78-5.9,4.59-5.27h-2.75l-4,4.8v-4.8h-2.24V347.1Zm10.59,0H647v-1.76h-4.38v-3.13h4v-1.76h-4v-2.76H647v-1.76h-6.59V347.1Zm8.62,0h2.24V335.93H649V347.1Zm6.59,0h2.25v-9.41H661v-1.76H652.4v1.76h3.19v9.41Zm13-11a8.51,8.51,0,0,0-2.68-.4c-2,0-3.9.91-3.9,3.41,0,3.7,4.9,2.82,4.9,4.94,0,1-1.14,1.44-2,1.44a5.4,5.4,0,0,1-2.52-.68l-.21,2a9.89,9.89,0,0,0,2.86.43c2.26,0,4.19-.92,4.19-3.37,0-3.75-4.89-2.93-4.89-4.87a1.56,1.56,0,0,1,1.76-1.55,5.85,5.85,0,0,1,2.27.48l.21-1.84Zm8.81,0a8.45,8.45,0,0,0-2.67-.4c-2,0-3.9.91-3.9,3.41,0,3.7,4.89,2.82,4.89,4.94,0,1-1.13,1.44-2,1.44a5.47,5.47,0,0,1-2.53-.68l-.21,2a10,10,0,0,0,2.87.43c2.25,0,4.19-.92,4.19-3.37,0-3.75-4.9-2.93-4.9-4.87a1.56,1.56,0,0,1,1.76-1.55,5.89,5.89,0,0,1,2.28.48l.2-1.84Zm4.64,11h2.24v-9.41h3.2v-1.76h-8.64v1.76H682v9.41Zm6.71-4c0,3,1.69,4.22,4.56,4.22s4.56-1.23,4.56-4.22v-7.14h-2.24v6.45c0,1.91-.61,3.15-2.32,3.15s-2.32-1.24-2.32-3.15v-6.45h-2.24v7.14Zm11.55,4h3.05c3.43,0,6.45-1.15,6.45-5.58s-3-5.59-6.45-5.59H700.3V347.1Zm2.24-9.41h1.25a3.83,3.83,0,0,1,0,7.65h-1.25v-7.65Zm9,9.41h2.24V335.93h-2.24V347.1Zm4.56,0h6.62v-1.76h-4.38v-3.13h4v-1.76h-4v-2.76h4.35v-1.76h-6.59V347.1Z" transform="translate(114.75 -308)"/><path class="cls-4" d="M-111.16,319.49c0,3.42,1.88,5.8,5.47,5.8s5.47-2.43,5.47-5.8-2-5.75-5.47-5.75-5.47,2.32-5.47,5.75Zm2.33,0c0-2,.91-4,3.14-4s3.13,2,3.13,4-.84,4-3.13,4-3.14-2-3.14-4ZM-105,311v1.86h1.85V311Zm-1.44,1.86V311h-1.86v1.86Zm10.21,2.86h.73c1.12,0,2.37.12,2.37,1.46s-1.26,1.55-2.37,1.55h-.73v-3Zm-2.24,9.41h2.24v-4.64h.72c.94,0,1.23.32,1.55,1.15l1.34,3.49h2.5l-1.79-4.37c-.23-.49-.58-1.1-1.19-1.15v0A2.55,2.55,0,0,0-90.76,317c0-3.11-2.87-3-5.27-3h-2.41V325.1Zm11.63,0h2.24v-9.41h3.2v-1.76H-90v1.76h3.2v9.41Zm6.78,0h6.58v-1.76h-4.34v-9.41H-80V325.1Zm7.73,0h2.24V313.93H-72.3V325.1Zm12.59-2a6.29,6.29,0,0,1-2.45.46,3.68,3.68,0,0,1-3.79-4,3.73,3.73,0,0,1,3.75-4.05,4.59,4.59,0,0,1,2.41.59l.16-1.88a7.36,7.36,0,0,0-2.53-.47c-3.79,0-6.12,2.15-6.12,6s2.51,5.58,6.12,5.58a11.52,11.52,0,0,0,2.55-.35l-.1-1.87Zm1.67,2h2.24v-4.89h4.48v4.89h2.24V313.93h-2.24v4.52H-55.8v-4.52H-58V325.1Zm11.47,0h6.62v-1.76h-4.38v-3.13h4v-1.76h-4v-2.76H-40v-1.76h-6.59V325.1Zm13-5h1.06c1.12,0,2.3.22,2.3,1.68,0,1.3-1.26,1.55-2.3,1.55H-33.6v-3.23Zm0-4.42h.87c1,0,2.16.1,2.16,1.4s-1.17,1.36-2.11,1.36h-.92v-2.76Zm-2.24,9.41h3.91c1.41,0,3.93-.41,3.93-3.23a2.59,2.59,0,0,0-2.56-2.54v0a2.49,2.49,0,0,0,2.23-2.49c0-2.45-2.16-2.87-3.6-2.87h-3.91V325.1Zm15.75-4.32h-3.27l1.62-4.61h0l1.62,4.61Zm-7.2,4.32H-25l1-2.56h4.53l1,2.56H-16l-4.38-11.17h-2.53l-4.35,11.17Zm12.54-4c0,3,1.7,4.22,4.56,4.22s4.56-1.23,4.56-4.22v-7.14H-7.87v6.45c0,1.91-.61,3.15-2.32,3.15s-2.32-1.24-2.32-3.15v-6.45h-2.24v7.14Zm11.47,0c0,3,1.7,4.22,4.56,4.22s4.56-1.23,4.56-4.22v-7.14H3.6v6.45c0,1.91-.6,3.15-2.32,3.15S-1,322.29-1,320.38v-6.45H-3.28v7.14ZM2,311v1.86H3.86V311ZM.56,312.83V311H-1.29v1.86Zm10,7.28h1.05c1.12,0,2.31.22,2.31,1.68,0,1.3-1.27,1.55-2.31,1.55H10.52v-3.23Zm0-4.42h.86c1,0,2.16.1,2.16,1.4s-1.17,1.36-2.11,1.36h-.91v-2.76ZM8.27,325.1h3.91c1.41,0,3.94-.41,3.94-3.23a2.59,2.59,0,0,0-2.57-2.54v0a2.49,2.49,0,0,0,2.23-2.49c0-2.45-2.16-2.87-3.6-2.87H8.27V325.1Zm9.7,0H24.6v-1.76H20.21v-3.13h4v-1.76h-4v-2.76h4.35v-1.76H18V325.1Zm10.87-9.41h.73c1.12,0,2.37.12,2.37,1.46s-1.27,1.55-2.37,1.55h-.73v-3ZM26.6,325.1h2.24v-4.64h.72c.94,0,1.23.32,1.55,1.15l1.34,3.49H35l-1.8-4.37c-.22-.49-.57-1.1-1.18-1.15v0a2.54,2.54,0,0,0,2.3-2.59c0-3.11-2.86-3-5.26-3H26.6V325.1Zm11.42,0h2.89l2-8.93h0l2,8.93h2.88l2.91-11.17H48.56l-2.09,8.93h0l-2-8.93h-3l-1.91,8.93h0l-2.08-8.93H35.06l3,11.17Zm19.55-4.32H54.31l1.61-4.61h0l1.61,4.61Zm-7.2,4.32h2.32l1-2.56H58.2l1,2.56h2.48l-4.39-11.17H54.72L50.37,325.1Zm20.66-2a6.29,6.29,0,0,1-2.45.46,3.68,3.68,0,0,1-3.79-4,3.73,3.73,0,0,1,3.74-4.05,4.63,4.63,0,0,1,2.42.59l.16-1.88a7.4,7.4,0,0,0-2.53-.47c-3.79,0-6.13,2.15-6.13,6s2.51,5.58,6.13,5.58a11.35,11.35,0,0,0,2.54-.35L71,323.07Zm1.66,2h2.24v-4.89h4.48v4.89h2.24V313.93H79.41v4.52H74.93v-4.52H72.69V325.1Zm11.39-4c0,3,1.7,4.22,4.56,4.22s4.56-1.23,4.56-4.22v-7.14H91v6.45c0,1.91-.6,3.15-2.32,3.15s-2.32-1.24-2.32-3.15v-6.45H84.08v7.14Zm11.44,4h2.15v-8.35h0L102,325.1h2.74V313.93h-2.15v8.36h0l-4.26-8.36H95.52V325.1ZM116,314.21a10.93,10.93,0,0,0-3.28-.47c-3.79,0-6.13,2.15-6.13,6s2.52,5.58,6.13,5.58a14.15,14.15,0,0,0,3.62-.57v-6h-4.52v1.76h2.37v2.91a5.82,5.82,0,0,1-1.47.16,3.68,3.68,0,0,1-3.79-4,3.8,3.8,0,0,1,4-4.05,7.35,7.35,0,0,1,2.88.59l.14-1.88Zm16.24,0a10.93,10.93,0,0,0-3.28-.47c-3.79,0-6.13,2.15-6.13,6s2.51,5.58,6.13,5.58a14.15,14.15,0,0,0,3.62-.57v-6H128v1.76h2.37v2.91a5.82,5.82,0,0,1-1.47.16,3.68,3.68,0,0,1-3.79-4,3.8,3.8,0,0,1,4-4.05,7.35,7.35,0,0,1,2.88.59l.14-1.88Zm2.61,10.89h6.57v-1.76h-4.33v-9.41h-2.24V325.1Zm7.92,0h6.62v-1.76H145v-3.13h4v-1.76h-4v-2.76h4.35v-1.76h-6.59V325.1Zm8.62,0h2.24V313.93h-2.24V325.1Zm10.77-11a8.49,8.49,0,0,0-2.67-.4c-2,0-3.91.91-3.91,3.41,0,3.7,4.9,2.82,4.9,4.94,0,1-1.14,1.44-2,1.44a5.47,5.47,0,0,1-2.53-.68l-.21,2a9.89,9.89,0,0,0,2.86.43c2.26,0,4.2-.92,4.2-3.37,0-3.75-4.9-2.93-4.9-4.87a1.56,1.56,0,0,1,1.76-1.55,5.85,5.85,0,0,1,2.27.48l.21-1.84Zm4.66,1.55h.78c1.15,0,2.13.45,2.13,1.75s-1,1.66-2.13,1.66h-.78v-3.41Zm-2.24,9.41h2.24v-4.24h.94c2.4,0,4.3-.94,4.3-3.55s-2.22-3.38-4.65-3.38h-2.83V325.1Zm9,0h6.58v-1.76h-4.34v-9.41h-2.24V325.1Zm14-4.32h-3.26l1.61-4.61h0l1.62,4.61Zm-7.2,4.32h2.32l1-2.56h4.53l1,2.56h2.47l-4.38-11.17h-2.53l-4.35,11.17Zm12.51,0H195v-8.35h0l4.27,8.35H202V313.93h-2.15v8.36h0l-4.25-8.36h-2.76V325.1Zm11.51-4c0,3,1.69,4.22,4.56,4.22s4.56-1.23,4.56-4.22v-7.14h-2.24v6.45c0,1.91-.61,3.15-2.32,3.15s-2.32-1.24-2.32-3.15v-6.45h-2.24v7.14Zm11.44,4h2.14v-8.35h0l4.28,8.35H225V313.93h-2.14v8.36h0l-4.26-8.36h-2.75V325.1Zm20.45-10.89a11,11,0,0,0-3.28-.47c-3.8,0-6.13,2.15-6.13,6s2.51,5.58,6.13,5.58a14.08,14.08,0,0,0,3.61-.57v-6h-4.51v1.76h2.37v2.91a5.93,5.93,0,0,1-1.47.16,3.68,3.68,0,0,1-3.8-4,3.8,3.8,0,0,1,4-4.05,7.28,7.28,0,0,1,2.88.59l.15-1.88Zm18.35-.07a8.55,8.55,0,0,0-2.68-.4c-2,0-3.9.91-3.9,3.41,0,3.7,4.89,2.82,4.89,4.94,0,1-1.13,1.44-2,1.44a5.47,5.47,0,0,1-2.53-.68l-.21,2a10,10,0,0,0,2.87.43c2.26,0,4.19-.92,4.19-3.37,0-3.75-4.89-2.93-4.89-4.87a1.56,1.56,0,0,1,1.76-1.55,5.88,5.88,0,0,1,2.27.48l.21-1.84Zm2.41,11h2.24V313.93H257V325.1Zm13.43-10.89a11,11,0,0,0-3.28-.47c-3.8,0-6.13,2.15-6.13,6s2.51,5.58,6.13,5.58a14,14,0,0,0,3.61-.57v-6h-4.51v1.76h2.37v2.91a5.93,5.93,0,0,1-1.47.16,3.68,3.68,0,0,1-3.8-4,3.8,3.8,0,0,1,4.05-4.05,7.28,7.28,0,0,1,2.88.59l.15-1.88ZM273,325.1h6.63v-1.76h-4.39v-3.13h4v-1.76h-4v-2.76h4.35v-1.76H273V325.1Zm8.82,0h2.24v-5.18h0l4,5.18h2.92l-4.78-5.9,4.59-5.27h-2.75l-4,4.8v-4.8h-2.24V325.1Zm10.05-5.61c0,3.42,1.89,5.8,5.47,5.8s5.47-2.43,5.47-5.8-2-5.75-5.47-5.75-5.47,2.32-5.47,5.75Zm2.33,0c0-2,.92-4,3.14-4s3.14,2,3.14,4-.85,4-3.14,4-3.14-2-3.14-4Zm21.55-5.35a8.45,8.45,0,0,0-2.67-.4c-2,0-3.9.91-3.9,3.41,0,3.7,4.89,2.82,4.89,4.94,0,1-1.13,1.44-2,1.44a5.47,5.47,0,0,1-2.53-.68l-.21,2a10,10,0,0,0,2.87.43c2.25,0,4.19-.92,4.19-3.37,0-3.75-4.9-2.93-4.9-4.87a1.56,1.56,0,0,1,1.76-1.55,5.89,5.89,0,0,1,2.28.48l.2-1.84Zm2.42,11h2.24V313.93h-2.24V325.1Zm4.56,0h6.62v-1.76H325v-3.13h4v-1.76h-4v-2.76h4.35v-1.76h-6.59V325.1Zm8.82,0h3.05c3.43,0,6.45-1.15,6.45-5.58s-3-5.59-6.45-5.59h-3.05V325.1Zm2.24-9.41h1.24a3.83,3.83,0,0,1,0,7.65h-1.24v-7.65ZM343,325.1h6.57v-1.76h-4.33v-9.41H343V325.1Zm7.84-4c0,3,1.69,4.22,4.56,4.22s4.56-1.23,4.56-4.22v-7.14h-2.24v6.45c0,1.91-.61,3.15-2.32,3.15s-2.32-1.24-2.32-3.15v-6.45h-2.24v7.14Zm11.44,4h2.14v-8.35h0l4.28,8.35h2.73V313.93h-2.14v8.36h0l-4.26-8.36h-2.75V325.1Zm20.45-10.89a11,11,0,0,0-3.28-.47c-3.8,0-6.13,2.15-6.13,6s2.51,5.58,6.13,5.58a14,14,0,0,0,3.61-.57v-6h-4.51v1.76H381v2.91a5.93,5.93,0,0,1-1.47.16,3.68,3.68,0,0,1-3.8-4,3.8,3.8,0,0,1,4.05-4.05,7.28,7.28,0,0,1,2.88.59l.15-1.88Zm8.81-.07a8.45,8.45,0,0,0-2.67-.4c-2,0-3.9.91-3.9,3.41,0,3.7,4.89,2.82,4.89,4.94,0,1-1.13,1.44-2,1.44a5.47,5.47,0,0,1-2.53-.68l-.21,2a10,10,0,0,0,2.87.43c2.25,0,4.19-.92,4.19-3.37,0-3.75-4.9-2.93-4.9-4.87a1.56,1.56,0,0,1,1.76-1.55,5.81,5.81,0,0,1,2.27.48l.21-1.84Zm4.43,11h2.9l2-8.93h0l2,8.93h2.88l2.91-11.17h-2.17l-2.1,8.93h0l-2-8.93h-3l-1.9,8.93h0l-2.07-8.93h-2.36l3,11.17Zm19.56-4.32H412.3l1.62-4.61h0l1.62,4.61Zm-7.2,4.32h2.32l1-2.56h4.53l1,2.56h2.48l-4.38-11.17h-2.53l-4.35,11.17Zm18.83-11a8.54,8.54,0,0,0-2.67-.4c-2,0-3.91.91-3.91,3.41,0,3.7,4.9,2.82,4.9,4.94,0,1-1.14,1.44-2,1.44a5.4,5.4,0,0,1-2.52-.68l-.21,2a9.89,9.89,0,0,0,2.86.43c2.26,0,4.19-.92,4.19-3.37,0-3.75-4.89-2.93-4.89-4.87a1.56,1.56,0,0,1,1.76-1.55A5.88,5.88,0,0,1,427,316l.21-1.84Zm8.81,0a8.45,8.45,0,0,0-2.67-.4c-2,0-3.9.91-3.9,3.41,0,3.7,4.89,2.82,4.89,4.94,0,1-1.13,1.44-2,1.44a5.47,5.47,0,0,1-2.53-.68l-.21,2a10,10,0,0,0,2.87.43c2.25,0,4.19-.92,4.19-3.37,0-3.75-4.9-2.93-4.9-4.87a1.56,1.56,0,0,1,1.76-1.55,5.81,5.81,0,0,1,2.27.48l.21-1.84Zm2.61,11h6.62v-1.76h-4.38v-3.13h4v-1.76h-4v-2.76h4.35v-1.76h-6.59V325.1Zm10.86-9.41h.74c1.12,0,2.37.12,2.37,1.46s-1.26,1.55-2.37,1.55h-.74v-3Zm-2.24,9.41h2.24v-4.64h.73c.94,0,1.23.32,1.55,1.15l1.34,3.49h2.5l-1.8-4.37c-.22-.49-.57-1.1-1.18-1.15v0a2.54,2.54,0,0,0,2.3-2.59c0-3.11-2.86-3-5.26-3h-2.42V325.1Zm11.43,0h2.9l2-8.93h0l2,8.93h2.88l2.91-11.17h-2.18l-2.09,8.93h0l-2-8.93h-3l-1.91,8.93h0l-2.08-8.93h-2.35l3,11.17Zm13.9,0h2.24V313.93h-2.24V325.1Zm6.61-9.41h.74c1.12,0,2.36.12,2.36,1.46s-1.26,1.55-2.36,1.55h-.74v-3Zm-2.24,9.41h2.24v-4.64h.72c.94,0,1.23.32,1.55,1.15l1.35,3.49h2.49l-1.79-4.37c-.22-.49-.58-1.1-1.18-1.15v0a2.55,2.55,0,0,0,2.3-2.59c0-3.11-2.86-3-5.26-3h-2.42V325.1Zm11.63,0h2.24v-9.41H494v-1.76h-8.64v1.76h3.2v9.41Zm13-11a8.55,8.55,0,0,0-2.68-.4c-2,0-3.9.91-3.9,3.41,0,3.7,4.9,2.82,4.9,4.94,0,1-1.14,1.44-2,1.44a5.47,5.47,0,0,1-2.53-.68l-.21,2a10,10,0,0,0,2.87.43c2.25,0,4.19-.92,4.19-3.37,0-3.75-4.89-2.93-4.89-4.87a1.56,1.56,0,0,1,1.76-1.55,5.88,5.88,0,0,1,2.27.48l.21-1.84Zm10.64,8.93a6.29,6.29,0,0,1-2.45.46,3.67,3.67,0,0,1-3.79-4,3.73,3.73,0,0,1,3.74-4.05,4.63,4.63,0,0,1,2.42.59l.15-1.88a7.35,7.35,0,0,0-2.52-.47c-3.79,0-6.13,2.15-6.13,6s2.51,5.58,6.13,5.58a11.51,11.51,0,0,0,2.54-.35l-.09-1.87Zm1.66,2h2.24v-4.89h4.48v4.89h2.24V313.93h-2.24v4.52h-4.48v-4.52h-2.24V325.1Zm17.52-4.32h-3.26l1.61-4.61h0l1.62,4.61Zm-7.2,4.32h2.32l1-2.56H532l1,2.56h2.48l-4.38-11.17h-2.53l-4.35,11.17Zm12.62,0h2.24v-4.89h3.78v-1.76h-3.78v-2.76h4v-1.76h-6.21V325.1Zm10,0H549v-9.41h3.2v-1.76h-8.64v1.76h3.2v9.41Zm13.79-5h1.05c1.12,0,2.31.22,2.31,1.68,0,1.3-1.27,1.55-2.31,1.55h-1.05v-3.23Zm0-4.42h.86c1,0,2.16.1,2.16,1.4s-1.17,1.36-2.11,1.36h-.91v-2.76Zm-2.24,9.41h3.9c1.41,0,3.94-.41,3.94-3.23a2.59,2.59,0,0,0-2.56-2.54v0a2.49,2.49,0,0,0,2.22-2.49c0-2.45-2.16-2.87-3.6-2.87h-3.9V325.1Zm15.74-4.32H570.8l1.61-4.61h0l1.62,4.61Zm-7.2,4.32h2.32l1-2.56h4.52l1,2.56h2.48l-4.38-11.17h-2.53l-4.35,11.17Zm12.54-4c0,3,1.7,4.22,4.56,4.22s4.56-1.23,4.56-4.22v-7.14h-2.24v6.45c0,1.91-.6,3.15-2.32,3.15s-2.32-1.24-2.32-3.15v-6.45H579.4v7.14Zm13.8-1h1c1.12,0,2.31.22,2.31,1.68,0,1.3-1.27,1.55-2.31,1.55h-1v-3.23Zm0-4.42h.86c1,0,2.16.1,2.16,1.4s-1.17,1.36-2.11,1.36h-.91v-2.76ZM591,325.1h3.9c1.41,0,3.94-.41,3.94-3.23a2.59,2.59,0,0,0-2.56-2.54v0a2.49,2.49,0,0,0,2.22-2.49c0-2.45-2.16-2.87-3.6-2.87H591V325.1Zm9.69,0h6.63v-1.76h-4.39v-3.13h4v-1.76h-4v-2.76h4.35v-1.76h-6.59V325.1Zm17.68-10.89a10.93,10.93,0,0,0-3.28-.47c-3.79,0-6.13,2.15-6.13,6s2.52,5.58,6.13,5.58a14.15,14.15,0,0,0,3.62-.57v-6h-4.51v1.76h2.36v2.91a5.82,5.82,0,0,1-1.47.16,3.68,3.68,0,0,1-3.79-4,3.8,3.8,0,0,1,4-4.05,7.35,7.35,0,0,1,2.88.59l.14-1.88Zm2.61,10.89h6.58v-1.76h-4.34v-9.41h-2.24V325.1Zm7.92,0h6.62v-1.76H631.1v-3.13h4v-1.76h-4v-2.76h4.35v-1.76h-6.59V325.1Zm8.62,0h2.24V313.93h-2.24V325.1Zm6.6,0h2.24v-9.41h3.2v-1.76h-8.64v1.76h3.2v9.41Zm8.83-9.41h.78c1.15,0,2.13.45,2.13,1.75s-1,1.66-2.13,1.66h-.78v-3.41Zm-2.24,9.41h2.24v-4.24h.94c2.4,0,4.31-.94,4.31-3.55s-2.23-3.38-4.66-3.38h-2.83V325.1Zm9,0h6.58v-1.76h-4.34v-9.41h-2.24V325.1Zm14-4.32h-3.26l1.61-4.61h0l1.61,4.61Zm-7.2,4.32h2.32l1-2.56h4.53l1,2.56h2.48l-4.39-11.17H670.8l-4.36,11.17Zm12.52,0h2.14v-8.35h0l4.27,8.35h2.74V313.93H686v8.36h0l-4.25-8.36H679V325.1Zm11.5-4c0,3,1.7,4.22,4.56,4.22s4.56-1.23,4.56-4.22v-7.14h-2.24v6.45c0,1.91-.61,3.15-2.32,3.15s-2.32-1.24-2.32-3.15v-6.45h-2.24v7.14Zm11.44,4H704v-8.35h0l4.27,8.35h2.73V313.93h-2.14v8.36h0l-4.26-8.36H701.9V325.1Zm20.45-10.89a11,11,0,0,0-3.28-.47c-3.8,0-6.13,2.15-6.13,6s2.51,5.58,6.13,5.58a14,14,0,0,0,3.61-.57v-6h-4.51v1.76h2.37v2.91a5.93,5.93,0,0,1-1.47.16,3.68,3.68,0,0,1-3.8-4,3.8,3.8,0,0,1,4.05-4.05,7.28,7.28,0,0,1,2.88.59l.15-1.88Z" transform="translate(114.75 -308)"/><path class="cls-5" d="M-101.31,418.41h3.17c3.36,0,6.91.67,6.91,5,0,3.89-3.79,4.66-6.91,4.66h-3.17v-9.7Zm0-13.25h2.59c3.08,0,6.48.29,6.48,4.18,0,3.45-3.5,4.08-6.33,4.08h-2.74v-8.26ZM-108,433.39h11.71c4.23,0,11.81-1.25,11.81-9.7,0-4.13-3.12-7.2-7.68-7.63V416c4-.72,6.67-3.5,6.67-7.49,0-7.34-6.48-8.59-10.8-8.59H-108v33.51Zm36.43-28.23h2.36c3.45,0,6.38,1.35,6.38,5.23s-3,5-6.38,5H-71.6V405.16Zm-6.72,28.23h6.72V420.67h2.84c7.2,0,12.91-2.84,12.91-10.66,0-8-6.67-10.13-14-10.13h-8.5v33.51Zm34.37-28.23h2.21c3.36,0,7.1.34,7.1,4.37,0,4.18-3.79,4.66-7.1,4.66h-2.21v-9Zm-6.72,28.23h6.72V419.47h2.16c2.83,0,3.7,1,4.66,3.45l4,10.47h7.49L-31,420.28c-.67-1.49-1.73-3.31-3.55-3.45v-.1A7.67,7.67,0,0,0-27.63,409c0-9.31-8.59-9.07-15.79-9.07h-7.25v33.51Z" transform="translate(114.75 -308)"/><path d="M-107.87,461.38h2.8V451.8l8.71,9.58h4.09l-9.91-10.31,9.18-9.24h-3.72l-8.35,8.6v-8.6h-2.8v19.55Zm32-14.28h-2.64v6.61c0,3.47-1.34,5.88-4.34,5.88-2.29-.14-3-1.77-3-5.1V447.1h-2.63v8.48c0,3.84,1.65,6.13,5.35,6.13a5.13,5.13,0,0,0,4.67-2.6h.06v2.27h2.55V447.1Zm-9.92-2.19h2.64v-2.8h-2.64v2.8Zm4.6,0h2.63v-2.8h-2.63v2.8Zm10.92,16.47h2.63v-6.61c0-3.47,1.34-5.88,4.34-5.88,2.29.14,3,1.76,3,5.1v7.39h2.63v-8.49c0-3.83-1.65-6.13-5.34-6.13a5.13,5.13,0,0,0-4.68,2.61h-.06V447.1h-2.54v14.28Zm18.22,0h2.64v-6.61c0-3.47,1.34-5.88,4.34-5.88,2.29.14,3,1.76,3,5.1v7.39h2.63v-8.49c0-3.83-1.65-6.13-5.35-6.13a5.12,5.12,0,0,0-4.67,2.61h-.06V447.1H-52v14.28Zm29.18-3.22a8.45,8.45,0,0,1-4.4,1.43,4.68,4.68,0,0,1-4.7-4.76h10.19c0-4.6-1.54-8.07-6.3-8.07-4,0-6.69,3-6.69,7.23,0,4.64,2.32,7.72,7.39,7.72a11,11,0,0,0,4.51-.92v-2.63Zm-9.1-5.29c.2-1.85,1.26-4,3.84-4,2.26,0,3.55,1.79,3.55,4ZM.8,450.82a9.37,9.37,0,0,1-1.2,4.73l-4-4.53c2.07-.93,4.28-2.61,4.28-5.1,0-3.08-2.29-4.42-4.84-4.42-2.8,0-5.1,1.45-5.1,4.59a6.89,6.89,0,0,0,2,4.45c-2.63,1.07-4.37,2.75-4.37,5.71,0,3.28,2.44,5.46,6.3,5.46a6.75,6.75,0,0,0,5.6-2.24l1.6,1.91h3.5l-3.42-3.87a12.91,12.91,0,0,0,2.24-6.69Zm-10.22,5.24c0-1.93,1.26-2.86,2.75-3.87l4.7,5.52a4.84,4.84,0,0,1-3.61,1.88,3.63,3.63,0,0,1-3.84-3.53Zm2-9.91A2.28,2.28,0,0,1-5,443.63,2.09,2.09,0,0,1-2.73,446c0,1.66-1.76,2.86-2.94,3.42a5.18,5.18,0,0,1-1.73-3.3Zm23.77-1.85h2.38c1.73,0,4.31.89,4.31,3.36s-2.18,3.44-3.92,3.44H16.37v-6.8Zm-2.8,17.08h2.8v-7.81h2.74c3.53,0,6.92-1.54,6.92-5.88s-3.33-5.86-7.34-5.86H13.57v19.55Zm17.41-11a6.73,6.73,0,0,1,4.15-1.46c2.63,0,3.53,1.26,3.53,3.72-1-.05-1.77-.05-2.8-.05-2.72,0-6.64,1.12-6.64,4.7,0,3.11,2.16,4.45,5.24,4.45a5.29,5.29,0,0,0,4.42-2.18h.06v1.85H41.4a24.22,24.22,0,0,1-.11-2.8v-5.91c0-3.89-1.65-5.91-5.74-5.91a9,9,0,0,0-4.7,1.35l.13,2.24Zm7.68,5.48a3.61,3.61,0,0,1-4,3.76A2.52,2.52,0,0,1,32,457.26c0-2.52,3.53-2.74,5-2.74.56,0,1.12.05,1.68.05v1.26Zm8.2,5.55h2.63v-6.5c0-3.58,1.54-5.82,3.9-5.82a3.79,3.79,0,0,1,1.45.25V447a7.48,7.48,0,0,0-1.73-.2,4.35,4.35,0,0,0-3.73,2.55h-.05V447.1H46.86v14.28Zm19.6-14.28H62.68V443l-2.63.84v3.31H56.83v2.13h3.22v8.34c0,2.86,1.68,4.14,4.39,4.14a8.12,8.12,0,0,0,2.24-.39v-2.24a3.26,3.26,0,0,1-1.79.51A2.27,2.27,0,0,1,62.68,457v-7.81h3.78V447.1Zm4.42,14.28h2.64v-6.61c0-3.47,1.34-5.88,4.34-5.88,2.29.14,3,1.76,3,5.1v7.39h2.63v-8.49c0-3.83-1.65-6.13-5.35-6.13a5.12,5.12,0,0,0-4.67,2.61h-.06V447.1H70.88v14.28Zm29.18-3.22a8.45,8.45,0,0,1-4.4,1.43,4.68,4.68,0,0,1-4.7-4.76h10.19c0-4.6-1.54-8.07-6.3-8.07-4,0-6.69,3-6.69,7.23,0,4.64,2.32,7.72,7.39,7.72a11,11,0,0,0,4.51-.92v-2.63ZM91,452.87c.2-1.85,1.26-4,3.84-4,2.26,0,3.55,1.79,3.55,4Zm14.84,8.51h2.63v-6.5c0-3.58,1.54-5.82,3.89-5.82a3.84,3.84,0,0,1,1.46.25V447a7.51,7.51,0,0,0-1.74-.2,4.35,4.35,0,0,0-3.72,2.55h-.06V447.1H105.8v14.28Z" transform="translate(114.75 -308)"/></svg>